<?xml version="1.0" standalone="no"?>
<!DOCTYPE svg PUBLIC "-//W3C//DTD SVG 1.1//EN" "http://www.w3.org/Graphics/SVG/1.1/DTD/svg11.dtd" >
<svg xmlns="http://www.w3.org/2000/svg" xmlns:xlink="http://www.w3.org/1999/xlink" version="1.1">
<metadata>
Created by FontForge 20161003 at Tue Feb 20 14:30:38 2018
 By www-data
Hans Kendrick is a trademark of Hanken Design Co.. (c)2012-2015
</metadata>
<defs>
<font id="HansKendrickRegular" horiz-adv-x="640" >
  <font-face 
    font-family="HansKendrickRegular"
    font-weight="400"
    font-stretch="normal"
    units-per-em="1000"
    panose-1="0 0 5 0 0 0 0 0 0 0"
    ascent="800"
    descent="-200"
    x-height="470"
    cap-height="750"
    bbox="-209 -245 1187 1017"
    underline-thickness="50"
    underline-position="-150"
    unicode-range="U+0020-FB02"
  />
<missing-glyph horiz-adv-x="500" 
d="M63 0v750h375v-750h-375zM125 63h250v625h-250v-625z" />
    <glyph glyph-name="fi" unicode="fi" horiz-adv-x="597" 
d="M121 0v400h-71v70h71v154q0 58 41 99t99 41q29 0 42 -7v-77q-17 14 -42 14q-29 0 -49.5 -20.5t-20.5 -49.5v-154h112v-70h-112v-400h-70zM460 553q-22 0 -37 15t-15 37t15 37t37 15t37 -15t15 -37t-15 -37t-37 -15zM425 0v470h70v-470h-70z" />
    <glyph glyph-name="fl" unicode="fl" horiz-adv-x="573" 
d="M121 0v400h-71v70h71v154q0 58 41 99t99 41q29 0 42 -7v-77q-17 14 -42 14q-29 0 -49.5 -20.5t-20.5 -49.5v-154h112v-70h-112v-400h-70zM413 0v750h70v-750h-70z" />
    <glyph glyph-name=".notdef" horiz-adv-x="500" 
d="M63 0v750h375v-750h-375zM125 63h250v625h-250v-625z" />
    <glyph glyph-name=".null" horiz-adv-x="0" 
 />
    <glyph glyph-name="nonmarkingreturn" horiz-adv-x="333" 
 />
    <glyph glyph-name="space" unicode=" " horiz-adv-x="300" 
 />
    <glyph glyph-name="exclam" unicode="!" horiz-adv-x="314" 
d="M120 197v563h75v-563h-75zM157 -10q-21 0 -34.5 14t-13.5 35t14 34.5t34 13.5t34 -13.5t14 -34.5t-13.5 -35t-34.5 -14z" />
    <glyph glyph-name="quotedbl" unicode="&#x22;" horiz-adv-x="393" 
d="M88 512l-20 238h94l-20 -238h-54zM248 512l-20 238h94l-20 -238h-54z" />
    <glyph glyph-name="numbersign" unicode="#" horiz-adv-x="745" 
d="M163 0l23 163h-107l9 66h108l32 228h-107l9 66h106l23 163h78l-23 -163h165l23 163h78l-23 -163h107l-9 -66h-108l-31 -228h106l-8 -66h-107l-23 -163h-78l23 163h-165l-23 -163h-78zM273 229h165l32 228h-165z" />
    <glyph glyph-name="dollar" unicode="$" horiz-adv-x="593" 
d="M268 -90v78q-144 11 -210 139l67 29q47 -82 143 -93v288q-41 18 -67.5 32t-54.5 37.5t-41.5 55.5t-13.5 73q0 76 49 135t128 76v80h62v-79q93 -18 155 -107l-69 -30q-36 47 -86 61v-281q42 -17 69.5 -32.5t56 -39.5t42.5 -57.5t14 -76.5q0 -75 -51 -130t-131 -75v-83h-62
zM268 431v252q-49 -18 -76.5 -54t-27.5 -80q0 -38 25.5 -65t78.5 -53zM330 71q51 18 80 51.5t29 75.5t-26.5 70t-82.5 56v-253z" />
    <glyph glyph-name="percent" unicode="%" horiz-adv-x="719" 
d="M228 464q-61 0 -104.5 43.5t-43.5 104.5t43.5 104.5t104.5 43.5t104 -43.5t43 -104.5t-43 -104.5t-104 -43.5zM78 0l475 750h87l-475 -750h-87zM228 529q34 0 58.5 24.5t24.5 58.5t-24.5 58.5t-58.5 24.5t-58.5 -24.5t-24.5 -58.5t24.5 -58.5t58.5 -24.5zM491 -10
q-61 0 -104.5 43.5t-43.5 104.5t43.5 104.5t104.5 43.5q60 0 104 -43.5t44 -104.5t-44 -104.5t-104 -43.5zM491 55q33 0 58 24.5t25 58.5q0 35 -24.5 59t-58.5 24q-35 0 -59.5 -24t-24.5 -59q0 -34 24.5 -58.5t59.5 -24.5z" />
    <glyph glyph-name="ampersand" unicode="&#x26;" horiz-adv-x="712" 
d="M284 -13q-102 0 -173 71q-71 73 -71 174q0 100 71 173l49 48q-50 52 -50 122q0 73 51 124t123 51t122 -51q49 -49 49 -118q0 -71 -53 -134l-52 53q31 40 31 80q0 39 -27 66q-28 29 -70 29t-70 -29q-29 -29 -29 -70q0 -40 29 -71l291 -292l115 116l53 -53l-115 -116
l113 -113l-53 -53l-113 113l-49 -49q-71 -71 -172 -71zM284 62q71 0 120 49l48 49l-239 241l-49 -49q-49 -49 -49 -120t49 -121q49 -49 120 -49z" />
    <glyph glyph-name="quotesingle" unicode="'" horiz-adv-x="233" 
d="M90 512l-20 238h93l-20 -238h-53z" />
    <glyph glyph-name="parenleft" unicode="(" horiz-adv-x="475" 
d="M365 -243q-63 5 -111 46.5t-74.5 97t-43 127t-21.5 126.5t-5 106t5 106t21.5 126.5t43 127.5t74.5 97.5t111 46.5v-74q-45 -6 -80 -44.5t-54 -89t-31 -112t-15.5 -105.5t-3.5 -79t3.5 -79t15.5 -105.5t31 -111.5t54 -88.5t80 -44.5v-74z" />
    <glyph glyph-name="parenright" unicode=")" horiz-adv-x="475" 
d="M110 -243v74q45 6 80 44.5t54 88.5t31 111.5t15.5 105.5t3.5 79t-3.5 79t-15.5 105.5t-31 112t-54 89t-80 44.5v74q63 -5 111 -46.5t74.5 -97.5t43 -127.5t21.5 -126.5t5 -106t-5 -106t-21.5 -126.5t-43 -127t-74.5 -97t-111 -46.5z" />
    <glyph glyph-name="asterisk" unicode="*" horiz-adv-x="360" 
d="M132 512l-53 30l75 97l-121 -15v59l121 -15l-75 97l53 30l47 -112l47 112l53 -30l-75 -97l121 15v-59l-121 15l75 -97l-53 -30l-47 112z" />
    <glyph glyph-name="plus" unicode="+" horiz-adv-x="698" 
d="M318 -26v234h-248v60h248v234h62v-234h248v-60h-248v-234h-62z" />
    <glyph glyph-name="comma" unicode="," horiz-adv-x="254" 
d="M58 -117l44 218h94l-80 -218h-58z" />
    <glyph glyph-name="hyphen" unicode="-" horiz-adv-x="468" 
d="M60 206v65h348v-65h-348z" />
    <glyph glyph-name="period" unicode="." horiz-adv-x="274" 
d="M136 -10q-25 0 -42 17t-17 42t17 42.5t42 17.5q24 0 42 -17.5t18 -42.5q0 -24 -18 -41.5t-42 -17.5z" />
    <glyph glyph-name="slash" unicode="/" horiz-adv-x="651" 
d="M29 -245l509 1005h74l-509 -1005h-74z" />
    <glyph glyph-name="zero" unicode="0" horiz-adv-x="692" 
d="M346 -12q-85 0 -147.5 61.5t-90.5 148t-28 179.5q0 62 15.5 127t45.5 125.5t83.5 98.5t121.5 38t121.5 -38t83.5 -98.5t45.5 -125.5t15.5 -127q0 -93 -28 -179.5t-90.5 -148t-147.5 -61.5zM346 59q50 0 89 31t60 80t31 101.5t10 103.5q0 52 -9.5 103.5t-30 102.5
t-59.5 82.5t-91 31.5q-51 0 -90 -31.5t-59.5 -82t-30.5 -102t-10 -101.5q0 -54 10 -106.5t30.5 -102t59 -80t90.5 -30.5z" />
    <glyph glyph-name="one" unicode="1" horiz-adv-x="409" 
d="M180 0v679h-60v71h134v-750h-74z" />
    <glyph glyph-name="two" unicode="2" horiz-adv-x="632" 
d="M79 0l291 344q54 62 73 93q34 53 34 105q0 65 -43.5 109t-107.5 44q-65 0 -105 -43.5t-47 -118.5h-76q10 107 71 170t155 63q95 0 161.5 -63.5t66.5 -160.5q0 -73 -50 -149q-13 -20 -28 -39.5t-39.5 -48t-31.5 -36.5l-167 -198h315v-71h-472z" />
    <glyph glyph-name="three" unicode="3" horiz-adv-x="633" 
d="M299 -12q-85 0 -150.5 58t-82.5 150h72q16 -64 60 -100.5t101 -36.5q65 0 113 47t48 114q0 69 -47.5 113t-113.5 44h-22v71h22q58 0 91 37t33 86q0 50 -35.5 87t-88.5 37q-47 0 -83.5 -34.5t-47.5 -91.5h-74q15 89 73 143t132 54q80 0 139 -57.5t59 -137.5
q0 -87 -81 -155q117 -78 117 -196q0 -94 -69.5 -163t-164.5 -69z" />
    <glyph glyph-name="four" unicode="4" horiz-adv-x="673" 
d="M425 0v147h-397l468 634v-562h96v-72h-96v-147h-71zM167 219h258v350z" />
    <glyph glyph-name="five" unicode="5" horiz-adv-x="633" 
d="M298 -12q-132 0 -219 124l59 43q67 -96 163 -96q71 0 124 50t53 127q0 75 -52.5 125.5t-124.5 50.5q-35 0 -84 -15l-44 36l78 317h286v-71h-228l-50 -203q25 5 55 5q102 0 170.5 -72.5t68.5 -174.5q0 -108 -73 -177t-182 -69z" />
    <glyph glyph-name="six" unicode="6" horiz-adv-x="700" 
d="M350 -12q-105 0 -177.5 71t-72.5 176q0 79 63 170l238 345h85l-194 -277q31 8 70 8q99 0 168.5 -72.5t69.5 -173.5q0 -104 -73.5 -175.5t-176.5 -71.5zM350 59q73 0 124 51.5t51 124.5t-51 124t-124 51t-124 -51t-51 -124t51 -124.5t124 -51.5z" />
    <glyph glyph-name="seven" unicode="7" horiz-adv-x="583" 
d="M50 0l414 679h-392v71h523l-457 -750h-88z" />
    <glyph glyph-name="eight" unicode="8" horiz-adv-x="628" 
d="M314 -12q-94 0 -164 69t-70 163q0 119 116 196q-80 67 -80 155q0 80 58.5 137.5t139.5 57.5t139.5 -57.5t58.5 -137.5q0 -87 -81 -155q117 -76 117 -196q0 -94 -70 -163t-164 -69zM314 448q51 0 88 36t37 87q0 50 -37 87t-88 37q-52 0 -88.5 -36.5t-36.5 -87.5t36.5 -87
t88.5 -36zM314 59q68 0 115 47t47 114t-47 112t-115 45t-115 -45t-47 -112t47 -114t115 -47z" />
    <glyph glyph-name="nine" unicode="9" horiz-adv-x="700" 
d="M213 -12l194 277q-31 -8 -70 -8q-99 0 -168.5 72.5t-69.5 173.5q0 104 73.5 175.5t176.5 71.5q105 0 177.5 -71t72.5 -176q0 -79 -63 -170l-238 -345h-85zM349 328q73 0 124 51t51 124t-51 124.5t-124 51.5t-124 -51.5t-51 -124.5t51 -124t124 -51z" />
    <glyph glyph-name="colon" unicode=":" horiz-adv-x="274" 
d="M136 361q-25 0 -42 17t-17 42t17 42.5t42 17.5q24 0 42 -17.5t18 -42.5q0 -24 -18 -41.5t-42 -17.5zM136 -10q-25 0 -42 17t-17 42t17 42.5t42 17.5q24 0 42 -17.5t18 -42.5q0 -24 -18 -41.5t-42 -17.5z" />
    <glyph glyph-name="semicolon" unicode=";" horiz-adv-x="254" 
d="M137 361q-25 0 -42 17t-17 42t17 42.5t42 17.5q24 0 42 -17.5t18 -42.5q0 -24 -18 -41.5t-42 -17.5zM58 -117l44 218h94l-80 -218h-58z" />
    <glyph glyph-name="less" unicode="&#x3c;" horiz-adv-x="575" 
d="M471 -1l-401 212v65l402 195l32 -64l-337 -165l338 -179z" />
    <glyph glyph-name="equal" unicode="=" horiz-adv-x="575" 
d="M70 290v60h435v-60h-435zM70 119v60h435v-60h-435z" />
    <glyph glyph-name="greater" unicode="&#x3e;" horiz-adv-x="575" 
d="M103 -1l-34 64l337 179l-336 165l32 64l401 -195v-65z" />
    <glyph glyph-name="question" unicode="?" horiz-adv-x="501" 
d="M213 197v84q0 33 17 63t41 53.5t48 46.5t41 52.5t17 61.5q0 53 -37.5 91t-90.5 38q-50 0 -86.5 -36t-43.5 -95h-71q7 91 64 147.5t137 56.5q82 0 141 -59t59 -143q0 -48 -22 -85t-60 -75l-30 -30q-52 -50 -52 -88v-83h-72zM249 -10q-21 0 -34.5 14t-13.5 35t14 34.5
t34 13.5t34 -13.5t14 -34.5t-13.5 -35t-34.5 -14z" />
    <glyph glyph-name="at" unicode="@" horiz-adv-x="541" 
d="M319 0q-99 0 -169 70.5t-70 169.5t70 169.5t169 70.5q56 0 99 -29t43 -84v-246h-57v14q-31 -23 -71 -23q-53 0 -90.5 38t-37.5 90t37.5 90t90.5 38q38 0 71 -24v23q0 29 -26 42t-59 13q-75 0 -128.5 -53.5t-53.5 -128.5t53.5 -129t128.5 -54h137v-57h-137zM333 169
q30 0 50.5 20.5t20.5 50.5t-20.5 50.5t-50.5 20.5q-29 0 -49.5 -20.5t-20.5 -50.5t20.5 -50.5t49.5 -20.5z" />
    <glyph glyph-name="A" unicode="A" horiz-adv-x="670" 
d="M5 0l330 780l330 -780h-80l-68 161h-363l-68 -161h-81zM182 229h307l-154 367z" />
    <glyph glyph-name="B" unicode="B" horiz-adv-x="590" 
d="M90 0v750h232q86 0 147 -61.5t61 -147.5q0 -104 -82 -158q50 -27 76 -76t26 -98q0 -86 -61 -147.5t-147 -61.5h-252zM165 416h179q55 0 84.5 34.5t29.5 90.5t-39.5 96t-96.5 40h-157v-261zM165 73h177q57 0 96.5 40t39.5 96t-39.5 97.5t-94.5 41.5h-179v-275z" />
    <glyph glyph-name="C" unicode="C" horiz-adv-x="761" 
d="M455 -10q-159 0 -272 113t-113 272t113 272t272 113q156 0 276 -116l-53 -49q-104 92 -223 92q-129 0 -220.5 -91.5t-91.5 -220.5t91.5 -220.5t220.5 -91.5q115 0 223 92l54 -48q-121 -117 -277 -117z" />
    <glyph glyph-name="D" unicode="D" horiz-adv-x="695" 
d="M90 0v750h169q176 0 281 -99t105 -274t-105.5 -276t-280.5 -101h-169zM166 73h93q145 0 229 79.5t84 224.5q0 144 -83.5 222t-229.5 78h-93v-604z" />
    <glyph glyph-name="E" unicode="E" horiz-adv-x="542" 
d="M90 0v750h382v-73h-307v-265h268v-74h-268v-265h307v-73h-382z" />
    <glyph glyph-name="F" unicode="F" horiz-adv-x="502" 
d="M90 0v750h382v-73h-307v-265h278v-74h-278v-338h-75z" />
    <glyph glyph-name="G" unicode="G" horiz-adv-x="830" 
d="M465 -10q-159 0 -272 113t-113 272t113 272t272 113q140 0 254 -96l-49 -53q-99 76 -205 76q-129 0 -220.5 -91.5t-91.5 -220.5t91.5 -220.5t220.5 -91.5q115 0 203 75v200h-214v74h286v-412h-72v49q-103 -59 -203 -59z" />
    <glyph glyph-name="H" unicode="H" horiz-adv-x="713" 
d="M90 0v750h71v-338h391v338h71v-750h-71v338h-391v-338h-71z" />
    <glyph glyph-name="I" unicode="I" horiz-adv-x="250" 
d="M88 0v750h75v-750h-75z" />
    <glyph glyph-name="J" unicode="J" horiz-adv-x="357" 
d="M127 -10q-43 0 -82 10v77q47 -14 82 -14q29 0 46 20t17 48v619h77v-619q0 -59 -41.5 -100t-98.5 -41z" />
    <glyph glyph-name="K" unicode="K" horiz-adv-x="605" 
d="M90 0v750h72v-334l331 334h103l-373 -375l373 -375h-103l-331 334v-334h-72z" />
    <glyph glyph-name="L" unicode="L" horiz-adv-x="446" 
d="M90 0v750h75v-677h241v-73h-316z" />
    <glyph glyph-name="M" unicode="M" horiz-adv-x="872" 
d="M90 0v780l346 -484l346 484v-780h-71v550l-275 -380l-275 380v-550h-71z" />
    <glyph glyph-name="N" unicode="N" horiz-adv-x="740" 
d="M650 -37l-489 603v-567h-71v781l489 -610v580h71v-787z" />
    <glyph glyph-name="O" unicode="O" horiz-adv-x="894" 
d="M447 -10q-159 0 -273 113t-114 272t114 272t273 113t273 -113t114 -272t-114 -272t-273 -113zM447 63q129 0 221.5 91.5t92.5 220.5t-92.5 220.5t-221.5 91.5t-221.5 -91.5t-92.5 -220.5t92.5 -220.5t221.5 -91.5z" />
    <glyph glyph-name="P" unicode="P" horiz-adv-x="554" 
d="M90 0v750h225q86 0 147.5 -61.5t61.5 -148.5t-61.5 -148t-147.5 -61h-151v-331h-74zM164 405h151q57 0 97 39.5t40 95.5t-40 96.5t-97 40.5h-151v-272z" />
    <glyph glyph-name="Q" unicode="Q" horiz-adv-x="914" 
d="M774 -11l-81 81q-111 -80 -236 -80q-159 0 -273 113t-114 272t114 272t273 113t273 -113t114 -272q0 -141 -97 -255l79 -79zM457 63q95 0 183 60l-97 97l52 52l100 -100q76 92 76 203q0 129 -92.5 220.5t-221.5 91.5t-221.5 -91.5t-92.5 -220.5t92.5 -220.5t221.5 -91.5z
" />
    <glyph glyph-name="R" unicode="R" horiz-adv-x="581" 
d="M90 0v750h225q86 0 147 -61.5t61 -148.5q0 -65 -38 -118t-105 -79l171 -343h-81l-165 331h-140v-331h-75zM165 405h150q57 0 96.5 39.5t39.5 95.5t-39.5 96.5t-96.5 40.5h-150v-272z" />
    <glyph glyph-name="S" unicode="S" horiz-adv-x="543" 
d="M259 -10q-66 0 -125.5 36.5t-94.5 103.5l67 29q25 -46 67 -70.5t86 -24.5q61 0 111 39t50 98q0 44 -27.5 71t-81.5 53q-6 3 -64 27q-38 16 -64.5 30.5t-54.5 37.5t-42 55.5t-14 73.5q0 87 62 149t149 62q108 0 183 -106l-69 -30q-46 62 -114 62q-56 0 -97 -40.5
t-41 -96.5q0 -43 28 -70t81 -51q12 -5 44.5 -18.5t48.5 -21t43.5 -22t42 -29t30.5 -34.5t23 -45.5t7 -56.5q0 -91 -71 -151t-163 -60z" />
    <glyph glyph-name="T" unicode="T" horiz-adv-x="473" 
d="M202 0v677h-197v73h463v-73h-197v-677h-69z" />
    <glyph glyph-name="U" unicode="U" horiz-adv-x="650" 
d="M325 -10q-98 0 -169 66t-71 155v539h72v-539q0 -58 48 -103t120 -45q73 0 120.5 44.5t47.5 103.5v539h72v-539q0 -89 -70.5 -155t-169.5 -66z" />
    <glyph glyph-name="V" unicode="V" horiz-adv-x="670" 
d="M335 -37l-330 787h81l249 -603l250 603h80z" />
    <glyph glyph-name="W" unicode="W" horiz-adv-x="975" 
d="M342 -33l-372 783h82l289 -613l106 221l-183 392h82l142 -306l142 306h81l-182 -392l106 -221l289 613h81l-369 -783l-148 306z" />
    <glyph glyph-name="X" unicode="X" horiz-adv-x="602" 
d="M10 0l249 377l-246 373h84l204 -310l205 310h83l-246 -373l249 -377h-84l-207 314l-207 -314h-84z" />
    <glyph glyph-name="Y" unicode="Y" horiz-adv-x="597" 
d="M263 0v366l-253 384h84l204 -310l205 310h84l-254 -384v-366h-70z" />
    <glyph glyph-name="Z" unicode="Z" horiz-adv-x="628" 
d="M30 0l431 680h-410v70h537l-432 -680h432v-70h-558z" />
    <glyph glyph-name="bracketleft" unicode="[" horiz-adv-x="308" 
d="M70 -245v995h168v-74h-107v-847h107v-74h-168z" />
    <glyph glyph-name="backslash" unicode="\" horiz-adv-x="651" 
d="M548 -245l-509 1005h74l509 -1005h-74z" />
    <glyph glyph-name="bracketright" unicode="]" horiz-adv-x="308" 
d="M68 -245v74h109v847h-107v74h168v-995h-170z" />
    <glyph glyph-name="asciicircum" unicode="^" horiz-adv-x="411" 
d="M-209 563l171 361h77l171 -361h-74l-136 309l-136 -309h-73z" />
    <glyph glyph-name="underscore" unicode="_" horiz-adv-x="698" 
d="M70 -65v65h558v-65h-558z" />
    <glyph glyph-name="grave" unicode="`" horiz-adv-x="0" 
d="M-38 573l-143 177h100l104 -177h-61z" />
    <glyph glyph-name="a" unicode="a" 
d="M305 -10q-101 0 -173 72t-72 173t72 173t173 72q106 0 175 -74v64h70v-470h-70v64q-69 -74 -175 -74zM305 60q72 0 123.5 51.5t51.5 123.5t-51.5 123.5t-123.5 51.5t-123.5 -51.5t-51.5 -123.5t51.5 -123.5t123.5 -51.5z" />
    <glyph glyph-name="b" unicode="b" 
d="M335 -10q-106 0 -175 74v-64h-70v750h70v-344q69 74 175 74q101 0 173 -72t72 -173t-72 -173t-173 -72zM335 60q72 0 123.5 51.5t51.5 123.5t-51.5 123.5t-123.5 51.5t-123.5 -51.5t-51.5 -123.5t51.5 -123.5t123.5 -51.5z" />
    <glyph glyph-name="c" unicode="c" horiz-adv-x="580" 
d="M305 -10q-101 0 -173 72t-72 173t72 173t173 72q73 0 134 -40.5t91 -107.5l-64 -27q-21 48 -65 76.5t-96 28.5q-72 0 -123.5 -51.5t-51.5 -123.5t51.5 -123.5t123.5 -51.5q52 0 96 28.5t64 76.5l64 -29q-28 -66 -90 -106t-134 -40z" />
    <glyph glyph-name="d" unicode="d" 
d="M305 -10q-101 0 -173 72t-72 173t72 173t173 72q106 0 175 -74v344h70v-750h-70v64q-69 -74 -175 -74zM305 60q72 0 123.5 51.5t51.5 123.5t-51.5 123.5t-123.5 51.5t-123.5 -51.5t-51.5 -123.5t51.5 -123.5t123.5 -51.5z" />
    <glyph glyph-name="e" unicode="e" horiz-adv-x="610" 
d="M305 -10q-101 0 -173 72t-72 173t72 173t173 72t173 -72t72 -173h-420q0 -72 51.5 -123.5t123.5 -51.5q52 0 96 28.5t64 76.5l64 -29q-28 -66 -90 -106t-134 -40zM141 295h328q-21 52 -66 83.5t-98 31.5t-98 -31.5t-66 -83.5z" />
    <glyph glyph-name="f" unicode="f" horiz-adv-x="323" 
d="M121 0v400h-71v70h71v154q0 58 41 99t99 41q29 0 42 -7v-77q-17 14 -42 14q-29 0 -49.5 -20.5t-20.5 -49.5v-154h112v-70h-112v-400h-70z" />
    <glyph glyph-name="g" unicode="g" 
d="M305 -245q-74 0 -134 39.5t-90 106.5l64 29q21 -48 63.5 -76.5t96.5 -28.5q72 0 123.5 51.5t51.5 123.5v64q-74 -74 -175 -74t-173 72t-72 173t72 173t173 72t175 -74v64h70v-470q0 -101 -72 -173t-173 -72zM305 60q72 0 123.5 51.5t51.5 123.5q0 73 -51 124t-124 51
q-72 0 -123.5 -51.5t-51.5 -123.5t51.5 -123.5t123.5 -51.5z" />
    <glyph glyph-name="h" unicode="h" horiz-adv-x="535" 
d="M90 0v750h70v-329q44 59 125 59q74 0 122 -53t48 -129v-298h-70v298q0 49 -29.5 80.5t-77.5 31.5q-46 0 -82 -32t-36 -77v-301h-70z" />
    <glyph glyph-name="i" unicode="i" horiz-adv-x="274" 
d="M137 553q-22 0 -37 15t-15 37t15 37t37 15t37 -15t15 -37t-15 -37t-37 -15zM102 0v470h70v-470h-70z" />
    <glyph glyph-name="j" unicode="j" horiz-adv-x="274" 
d="M137 553q-22 0 -37 15t-15 37t15 37t37 15t37 -15t15 -37t-15 -37t-37 -15zM102 -245v715h70v-715h-70z" />
    <glyph glyph-name="k" unicode="k" horiz-adv-x="498" 
d="M90 0v750h70v-471l190 191h101l-232 -224l259 -246h-101l-217 213v-213h-70z" />
    <glyph glyph-name="l" unicode="l" horiz-adv-x="250" 
d="M90 0v750h70v-750h-70z" />
    <glyph glyph-name="m" unicode="m" horiz-adv-x="830" 
d="M90 0v470h70v-49q44 59 125 59q91 0 139 -75q28 35 69.5 55t86.5 20q75 0 122.5 -53t47.5 -129v-298h-70v298q0 46 -30.5 79t-75.5 33q-46 0 -82.5 -32t-36.5 -77v-301h-70v298q0 46 -30.5 79t-76.5 33t-82 -32t-36 -77v-301h-70z" />
    <glyph glyph-name="n" unicode="n" horiz-adv-x="535" 
d="M90 0v470h70v-49q44 59 125 59q75 0 122.5 -53t47.5 -129v-298h-70v298q0 46 -30.5 79t-76.5 33t-82 -32t-36 -77v-301h-70z" />
    <glyph glyph-name="o" unicode="o" horiz-adv-x="610" 
d="M305 -10q-101 0 -173 72t-72 173t72 173t173 72t173 -72t72 -173t-72 -173t-173 -72zM305 60q72 0 123.5 51.5t51.5 123.5t-51.5 123.5t-123.5 51.5t-123.5 -51.5t-51.5 -123.5t51.5 -123.5t123.5 -51.5z" />
    <glyph glyph-name="p" unicode="p" 
d="M90 -245v715h70v-64q69 74 175 74q100 0 172.5 -72.5t72.5 -172.5t-72.5 -172.5t-172.5 -72.5q-106 0 -175 74v-309h-70zM335 60q72 0 123.5 51.5t51.5 123.5t-51.5 123.5t-123.5 51.5t-123.5 -51.5t-51.5 -123.5t51.5 -123.5t123.5 -51.5z" />
    <glyph glyph-name="q" unicode="q" 
d="M480 -245v309q-69 -74 -175 -74q-101 0 -173 72t-72 173t72 173t173 72q106 0 175 -74v64h70v-715h-70zM305 60q72 0 123.5 51.5t51.5 123.5t-51.5 123.5t-123.5 51.5t-123.5 -51.5t-51.5 -123.5t51.5 -123.5t123.5 -51.5z" />
    <glyph glyph-name="r" unicode="r" horiz-adv-x="365" 
d="M90 0v470h70v-62q40 72 119 72q29 0 56 -10v-70q-29 10 -56 10q-55 0 -87 -40.5t-32 -110.5v-259h-70z" />
    <glyph glyph-name="s" unicode="s" horiz-adv-x="383" 
d="M189 -10q-50 0 -92.5 28.5t-56.5 75.5l65 28q4 -27 29.5 -44.5t54.5 -17.5q32 0 58 19.5t26 50.5q0 24 -23 41t-55.5 29t-64.5 26.5t-55 43.5t-23 70q0 58 41 99t99 41q42 0 76.5 -22.5t51.5 -60.5l-64 -28q-20 41 -64 41q-29 0 -49.5 -20.5t-20.5 -49.5q0 -24 23 -40.5
t55.5 -28.5t64.5 -27t55 -43.5t23 -70.5q0 -60 -46.5 -100t-107.5 -40z" />
    <glyph glyph-name="t" unicode="t" horiz-adv-x="338" 
d="M131 0v400h-81v70h81v167h70v-167h87v-70h-87v-400h-70z" />
    <glyph glyph-name="u" unicode="u" horiz-adv-x="517" 
d="M258 -10q-76 0 -129.5 53.5t-53.5 129.5v297h70v-297q0 -46 33.5 -79.5t79.5 -33.5q47 0 80.5 33.5t33.5 79.5v297h70v-297q0 -76 -54 -129.5t-130 -53.5z" />
    <glyph glyph-name="v" unicode="v" horiz-adv-x="510" 
d="M244 0l-214 470h78l149 -336h2l144 336h77l-210 -470h-26z" />
    <glyph glyph-name="w" unicode="w" horiz-adv-x="770" 
d="M232 0l-202 470h77l137 -331h2l132 331h12l133 -331h2l137 331h78l-204 -470h-29l-122 307h-2l-122 -307h-29z" />
    <glyph glyph-name="x" unicode="x" horiz-adv-x="537" 
d="M30 0l193 235l-193 235h91l147 -180l148 180h91l-193 -235l193 -235h-91l-148 180l-147 -180h-91z" />
    <glyph glyph-name="y" unicode="y" horiz-adv-x="530" 
d="M119 -245l118 273l-207 442h80l164 -364l148 364h78l-304 -715h-77z" />
    <glyph glyph-name="z" unicode="z" horiz-adv-x="487" 
d="M20 0v4l304 401h-272v65h405l-305 -406h304v-64h-436z" />
    <glyph glyph-name="braceleft" unicode="{" horiz-adv-x="368" 
d="M240 -242q-43 0 -67 41.5t-24 91.5v182q0 65 -8 93q-11 38 -56 64v60q42 24 53 57.5t11 99.5v181q0 50 24 91.5t67 41.5h43v-68q-39 -3 -54.5 -19t-15.5 -56v-185q0 -112 -64 -173q64 -61 64 -173v-186q0 -40 15.5 -56t54.5 -19v-68h-43z" />
    <glyph glyph-name="bar" unicode="|" horiz-adv-x="250" 
d="M87 -227v977h75v-977h-75z" />
    <glyph glyph-name="braceright" unicode="}" horiz-adv-x="368" 
d="M85 -242v68q39 3 54.5 19t15.5 56v186q0 112 64 173q-64 61 -64 173v185q0 40 -15.5 56t-54.5 19v68h43q43 0 67 -41.5t24 -91.5v-181q0 -66 11 -99.5t53 -57.5v-60q-45 -26 -56 -64q-8 -28 -8 -93v-182q0 -50 -24 -91.5t-67 -41.5h-43z" />
    <glyph glyph-name="asciitilde" unicode="~" horiz-adv-x="0" 
d="M-128 807l-62 22q27 43 51.5 63t55.5 20q33 0 85 -26q44 -22 58 -22q4 0 8 1.5t7.5 4t7 6.5t6 7t6 9t5 8.5t5 8t3.5 6.5l62 -21q-48 -86 -107 -86q-29 0 -76.5 25t-67.5 25t-47 -51z" />
    <glyph glyph-name="uni00A0" unicode="&#xa0;" horiz-adv-x="300" 
 />
    <glyph glyph-name="exclamdown" unicode="&#xa1;" horiz-adv-x="314" 
d="M157 663q-21 0 -34.5 13.5t-13.5 35.5q0 21 14 34.5t34 13.5t34 -13.5t14 -34.5q0 -22 -13.5 -35.5t-34.5 -13.5zM120 -10v563h75v-563h-75z" />
    <glyph glyph-name="cent" unicode="&#xa2;" horiz-adv-x="570" 
d="M271 -91v83q-93 17 -152 84.5t-59 158.5t59 158.5t152 84.5v85h63v-85q131 -22 197 -147l-66 -28q-44 81 -131 101v-338q87 21 130 101l66 -30q-62 -123 -196 -145v-83h-63zM271 67v336q-64 -17 -101.5 -63t-37.5 -105t37.5 -105t101.5 -63z" />
    <glyph glyph-name="sterling" unicode="&#xa3;" horiz-adv-x="808" 
d="M159 -11v38l41 27q65 43 89 78.5t24 100.5q0 49 -16 155q0 1 -2 17h-82v71h78q7 117 68 190q33 39 79 61.5t92 22.5h133v-71h-133q-69 0 -118 -60q-44 -50 -51 -143h302v-71h-298q16 -108 16 -156q0 -112 -64 -189h346v-71h-504z" />
    <glyph glyph-name="currency" unicode="&#xa4;" horiz-adv-x="630" 
d="M315 50q-79 0 -159 54l-42 -41l-44 44l40 40q-50 79 -50 153t50 153l-40 40l44 44l42 -41q80 54 159 54t159 -54l42 41l44 -44l-40 -40q50 -79 50 -153t-50 -153l40 -40l-44 -44l-42 41q-80 -54 -159 -54zM315 121q75 0 129 54t54 129t-52.5 125t-130.5 50t-131 -50
t-53 -125v-4q2 -73 55.5 -126t128.5 -53z" />
    <glyph glyph-name="yen" unicode="&#xa5;" horiz-adv-x="637" 
d="M283 0v180h-190v63h190v82h-190v63h176l-225 362h84l190 -306l191 306h84l-226 -362h177v-63h-191v-82h191v-63h-191v-180h-70z" />
    <glyph glyph-name="brokenbar" unicode="&#xa6;" horiz-adv-x="200" 
d="M62 352v488h75v-488h-75zM62 -241v488h75v-488h-75z" />
    <glyph glyph-name="section" unicode="&#xa7;" horiz-adv-x="619" 
d="M321 -92q-67 0 -131 36.5t-106 105.5l59 44q37 -61 74.5 -87.5t90.5 -26.5q47 0 81.5 31.5t34.5 78.5t-47 81q-21 16 -52 31q-25 12 -63 28q-43 19 -69 33t-55.5 36.5t-43.5 50.5t-14 63q0 77 89 154q-42 55 -42 109q0 81 50 125t123 44q108 0 182 -84l-57 -47
q-52 58 -120 58q-42 0 -70 -25t-28 -69q0 -39 20.5 -61t65.5 -44l120 -61q29 -15 45 -25t38 -28.5t32.5 -43.5t10.5 -57q0 -71 -82 -151q26 -24 37.5 -50t11.5 -67q0 -86 -53.5 -134t-131.5 -48zM401 248q60 51 60 99q0 34 -18.5 56t-54.5 40l-167 82q-60 -49 -60 -98
q0 -35 18 -56.5t55 -40.5z" />
    <glyph glyph-name="dieresis" unicode="&#xa8;" horiz-adv-x="637" 
d="M233 807q-24 0 -39.5 15.5t-15.5 38.5t15.5 39t39.5 16q23 0 38.5 -16t15.5 -39t-15.5 -38.5t-38.5 -15.5zM410 807q-24 0 -39.5 15.5t-15.5 38.5t15.5 39t39.5 16q23 0 38.5 -16t15.5 -39t-15.5 -38.5t-38.5 -15.5z" />
    <glyph glyph-name="copyright" unicode="&#xa9;" horiz-adv-x="767" 
d="M383 63q-129 0 -221 91.5t-92 220.5t92 220.5t221 91.5t221.5 -91.5t92.5 -220.5t-92.5 -220.5t-221.5 -91.5zM383 124q105 0 179 73t74 178t-74 178t-179 73q-104 0 -178 -73t-74 -178t74 -178t178 -73zM381 210q-69 0 -118 49t-49 118t49 118t118 49q101 0 158 -112
l-62 -27q-39 70 -96 70q-41 0 -69.5 -28.5t-28.5 -69.5t29 -70t69 -29q55 0 94 65q43 -13 64 -22q-56 -111 -158 -111z" />
    <glyph glyph-name="guillemotleft" unicode="&#xab;" horiz-adv-x="405" 
d="M177 98l-139 142l139 133l39 -46l-93 -89l94 -96zM327 98l-139 142l139 133l39 -46l-93 -89l94 -96z" />
    <glyph glyph-name="registered" unicode="&#xae;" horiz-adv-x="491" 
d="M245 361q-82 0 -141 58.5t-59 140.5q0 83 59 141.5t141 58.5q83 0 142 -58.5t59 -141.5q0 -82 -59 -140.5t-142 -58.5zM245 395q70 0 119 48t49 117q0 70 -49 118t-119 48q-69 0 -117.5 -48.5t-48.5 -117.5t48.5 -117t117.5 -48zM194 463v195h57q26 0 44.5 -16.5
t18.5 -40.5q0 -30 -37 -52l48 -86h-36l-45 82h-18v-82h-32zM226 573h25q13 0 22 8t9 20q0 13 -9 21t-22 8h-25v-57z" />
    <glyph glyph-name="macron" unicode="&#xaf;" horiz-adv-x="383" 
d="M20 589v40h344v-40h-344z" />
    <glyph glyph-name="degree" unicode="&#xb0;" horiz-adv-x="477" 
d="M239 400q-74 0 -126.5 52t-52.5 126t52.5 126.5t126.5 52.5t126 -52.5t52 -126.5t-52.5 -126t-125.5 -52zM239 465q47 0 80 33.5t33 79.5q0 47 -33.5 80.5t-79.5 33.5q-47 0 -80.5 -34t-33.5 -80t33.5 -79.5t80.5 -33.5z" />
    <glyph glyph-name="plusminus" unicode="&#xb1;" horiz-adv-x="698" 
d="M318 108v137h-248v60h248v137h62v-137h248v-60h-248v-137h-62zM70 0v60h558v-60h-558z" />
    <glyph glyph-name="acute" unicode="&#xb4;" horiz-adv-x="0" 
d="M-61 573l105 177h100l-144 -177h-61z" />
    <glyph glyph-name="paragraph" unicode="&#xb6;" horiz-adv-x="509" 
d="M245 0v280q-92 14 -153.5 78.5t-61.5 155.5q0 98 70.5 167t168.5 69h151v-750h-59v692h-58v-692h-58z" />
    <glyph glyph-name="periodcentered" unicode="&#xb7;" horiz-adv-x="0" 
d="M-9 180q-25 0 -42.5 17t-17.5 42q0 24 17.5 41.5t42.5 17.5q26 0 43 -17t17 -42q0 -26 -17 -42.5t-43 -16.5z" />
    <glyph glyph-name="cedilla" unicode="&#xb8;" horiz-adv-x="579" 
d="M261 -195v49h4q21 0 31.5 1.5t20 12t9.5 30.5q0 46 -50 46q-2 0 -6 -0.5t-6 -0.5l20 61l30 -4q-15 0 -23 -37q39 0 64.5 -17.5t25.5 -53.5q0 -55 -30 -71t-90 -16z" />
    <glyph glyph-name="guillemotright" unicode="&#xbb;" horiz-adv-x="405" 
d="M79 98l-40 44l94 96l-93 89l38 46l140 -133zM229 98l-40 44l94 96l-93 89l38 46l140 -133z" />
    <glyph glyph-name="questiondown" unicode="&#xbf;" horiz-adv-x="501" 
d="M248 663q-20 0 -34 13.5t-14 34.5t14 35t34 14t33.5 -14t13.5 -35t-13.5 -34.5t-33.5 -13.5zM248 -10q-82 0 -141 59t-59 143q0 48 22 85t60 75l30 30q52 50 52 88v83h72v-84q0 -33 -17 -63t-41 -53.5t-48 -46.5t-41 -52.5t-17 -61.5q0 -53 37.5 -91t90.5 -38
q50 0 86.5 36.5t42.5 94.5h72q-7 -91 -64 -147.5t-137 -56.5z" />
    <glyph glyph-name="Agrave" unicode="&#xc0;" horiz-adv-x="670" 
d="M305 840l-143 177h100l104 -177h-61zM5 0l330 780l330 -780h-80l-68 161h-363l-68 -161h-81zM182 229h307l-154 367z" />
    <glyph glyph-name="Aacute" unicode="&#xc1;" horiz-adv-x="670" 
d="M335 840l105 177h100l-144 -177h-61zM5 0l330 780l330 -780h-80l-68 161h-363l-68 -161h-81zM182 229h307l-154 367z" />
    <glyph glyph-name="Acircumflex" unicode="&#xc2;" horiz-adv-x="670" 
d="M196 840l101 113h76l101 -113h-73l-66 61l-66 -61h-73zM5 0l330 780l330 -780h-80l-68 161h-363l-68 -161h-81zM182 229h307l-154 367z" />
    <glyph glyph-name="Atilde" unicode="&#xc3;" horiz-adv-x="670" 
d="M217 840l-62 21q27 44 52 64t55 20q33 0 85 -26q44 -22 58 -22q5 0 10.5 3t9.5 6.5t9 10t7.5 10.5t6.5 11.5t5 8.5l62 -20q-48 -86 -107 -86q-28 0 -76 25t-68 25q-5 0 -10.5 -3t-9.5 -6.5t-9 -10.5t-7 -10.5t-6.5 -11.5t-4.5 -9zM5 0l330 780l330 -780h-80l-68 161h-363
l-68 -161h-81zM182 229h307l-154 367z" />
    <glyph glyph-name="Adieresis" unicode="&#xc4;" horiz-adv-x="670" 
d="M247 840q-24 0 -39.5 15.5t-15.5 38.5t15.5 39t39.5 16q23 0 38.5 -16t15.5 -39t-15.5 -38.5t-38.5 -15.5zM424 840q-24 0 -39.5 15.5t-15.5 38.5t15.5 39t39.5 16q23 0 38.5 -16t15.5 -39t-15.5 -38.5t-38.5 -15.5zM5 0l330 780l330 -780h-80l-68 161h-363l-68 -161h-81
zM182 229h307l-154 367z" />
    <glyph glyph-name="Aring" unicode="&#xc5;" horiz-adv-x="670" 
d="M5 0l320 755q-30 4 -50.5 26.5t-20.5 53.5q0 34 23.5 57.5t57.5 23.5q33 0 57 -23.5t24 -57.5q0 -31 -20.5 -53.5t-50.5 -26.5l320 -755h-80l-68 161h-363l-68 -161h-81zM335 795q17 0 28.5 11.5t11.5 28.5t-11.5 29t-28.5 12t-28.5 -12t-11.5 -29t11.5 -28.5t28.5 -11.5
zM182 229h307l-154 367z" />
    <glyph glyph-name="AE" unicode="&#xc6;" horiz-adv-x="945" 
d="M58 0l469 750h364v-71h-308v-261h261v-71h-261v-276h308v-71h-379v210h-241l-129 -210h-84zM314 280h198v310z" />
    <glyph glyph-name="Ccedilla" unicode="&#xc7;" horiz-adv-x="761" 
d="M417 -202v49h4q21 0 31.5 1.5t20 12t9.5 30.5q0 45 -50 45h-12l18 54q-153 7 -260.5 119t-107.5 266q0 159 113 272t272 113q156 0 276 -116l-53 -49q-104 92 -223 92q-129 0 -220.5 -91.5t-91.5 -220.5t91.5 -220.5t220.5 -91.5q115 0 223 92l54 -48
q-118 -114 -269 -117q-11 -7 -16 -34q39 0 64.5 -17.5t25.5 -53.5q0 -55 -30 -71t-90 -16z" />
    <glyph glyph-name="Egrave" unicode="&#xc8;" horiz-adv-x="542" 
d="M251 820l-143 177h100l104 -177h-61zM90 0v750h382v-73h-307v-265h268v-74h-268v-265h307v-73h-382z" />
    <glyph glyph-name="Eacute" unicode="&#xc9;" horiz-adv-x="542" 
d="M281 820l105 177h100l-144 -177h-61zM90 0v750h382v-73h-307v-265h268v-74h-268v-265h307v-73h-382z" />
    <glyph glyph-name="Ecircumflex" unicode="&#xca;" horiz-adv-x="542" 
d="M142 820l101 113h76l101 -113h-73l-66 61l-66 -61h-73zM90 0v750h382v-73h-307v-265h268v-74h-268v-265h307v-73h-382z" />
    <glyph glyph-name="Edieresis" unicode="&#xcb;" horiz-adv-x="542" 
d="M193 820q-24 0 -39.5 15.5t-15.5 38.5t15.5 39t39.5 16q23 0 38.5 -16t15.5 -39t-15.5 -38.5t-38.5 -15.5zM370 820q-24 0 -39.5 15.5t-15.5 38.5t15.5 39t39.5 16q23 0 38.5 -16t15.5 -39t-15.5 -38.5t-38.5 -15.5zM90 0v750h382v-73h-307v-265h268v-74h-268v-265h307
v-73h-382z" />
    <glyph glyph-name="Igrave" unicode="&#xcc;" horiz-adv-x="250" 
d="M93 812l-144 177h100l105 -177h-61zM89 0v750h75v-750h-75z" />
    <glyph glyph-name="Iacute" unicode="&#xcd;" horiz-adv-x="250" 
d="M97 812l105 177h100l-144 -177h-61zM87 0v750h75v-750h-75z" />
    <glyph glyph-name="Icircumflex" unicode="&#xce;" horiz-adv-x="250" 
d="M-14 811l101 113h76l101 -113h-73l-66 61l-66 -61h-73zM88 0v750h75v-750h-75z" />
    <glyph glyph-name="Idieresis" unicode="&#xcf;" horiz-adv-x="250" 
d="M37 807q-24 0 -39.5 15.5t-15.5 38.5t15.5 39t39.5 16q23 0 38.5 -16t15.5 -39t-15.5 -38.5t-38.5 -15.5zM214 807q-24 0 -39.5 15.5t-15.5 38.5t15.5 39t39.5 16q23 0 38.5 -16t15.5 -39t-15.5 -38.5t-38.5 -15.5zM88 0v750h75v-750h-75z" />
    <glyph glyph-name="Eth" unicode="&#xd0;" horiz-adv-x="715" 
d="M89 0v336h-82v65h82v349h169q176 0 281 -99t105 -274t-105.5 -276t-280.5 -101h-169zM165 73h93q145 0 229 80t84 224t-83.5 222t-229.5 78h-93v-276h147v-65h-147v-263z" />
    <glyph glyph-name="Ntilde" unicode="&#xd1;" horiz-adv-x="740" 
d="M270 840l-62 21q27 44 52 64t55 20q33 0 85 -26q44 -22 58 -22q5 0 10.5 3t9.5 6.5t9 10t7.5 10.5t6.5 11.5t5 8.5l62 -20q-48 -86 -107 -86q-29 0 -77 25t-67 25q-5 0 -10.5 -3t-9.5 -6.5t-9 -10.5t-7 -10.5t-6.5 -11.5t-4.5 -9zM650 -37l-489 603v-567h-71v781
l489 -610v580h71v-787z" />
    <glyph glyph-name="Ograve" unicode="&#xd2;" horiz-adv-x="894" 
d="M417 820l-143 177h100l104 -177h-61zM447 -10q-159 0 -273 113t-114 272t114 272t273 113t273 -113t114 -272t-114 -272t-273 -113zM447 63q129 0 221.5 91.5t92.5 220.5t-92.5 220.5t-221.5 91.5t-221.5 -91.5t-92.5 -220.5t92.5 -220.5t221.5 -91.5z" />
    <glyph glyph-name="Oacute" unicode="&#xd3;" horiz-adv-x="894" 
d="M447 820l105 177h100l-144 -177h-61zM447 -10q-159 0 -273 113t-114 272t114 272t273 113t273 -113t114 -272t-114 -272t-273 -113zM447 63q129 0 221.5 91.5t92.5 220.5t-92.5 220.5t-221.5 91.5t-221.5 -91.5t-92.5 -220.5t92.5 -220.5t221.5 -91.5z" />
    <glyph glyph-name="Ocircumflex" unicode="&#xd4;" horiz-adv-x="894" 
d="M308 820l101 113h76l101 -113h-73l-66 61l-66 -61h-73zM447 -10q-159 0 -273 113t-114 272t114 272t273 113t273 -113t114 -272t-114 -272t-273 -113zM447 63q129 0 221.5 91.5t92.5 220.5t-92.5 220.5t-221.5 91.5t-221.5 -91.5t-92.5 -220.5t92.5 -220.5t221.5 -91.5z
" />
    <glyph glyph-name="Otilde" unicode="&#xd5;" horiz-adv-x="894" 
d="M329 820l-62 21q27 44 52 64t55 20q33 0 85 -26q44 -22 58 -22q5 0 10.5 3t9.5 6.5t9 10t7.5 10.5t6.5 11.5t5 8.5l62 -20q-48 -86 -107 -86q-28 0 -76 25t-68 25q-5 0 -10.5 -3t-9.5 -6.5t-9 -10.5t-7 -10.5t-6.5 -11.5t-4.5 -9zM447 -10q-159 0 -273 113t-114 272
t114 272t273 113t273 -113t114 -272t-114 -272t-273 -113zM447 63q129 0 221.5 91.5t92.5 220.5t-92.5 220.5t-221.5 91.5t-221.5 -91.5t-92.5 -220.5t92.5 -220.5t221.5 -91.5z" />
    <glyph glyph-name="Odieresis" unicode="&#xd6;" horiz-adv-x="894" 
d="M359 820q-24 0 -39.5 15.5t-15.5 38.5t15.5 39t39.5 16q23 0 38.5 -16t15.5 -39t-15.5 -38.5t-38.5 -15.5zM536 820q-24 0 -39.5 15.5t-15.5 38.5t15.5 39t39.5 16q23 0 38.5 -16t15.5 -39t-15.5 -38.5t-38.5 -15.5zM447 -10q-159 0 -273 113t-114 272t114 272t273 113
t273 -113t114 -272t-114 -272t-273 -113zM447 63q129 0 221.5 91.5t92.5 220.5t-92.5 220.5t-221.5 91.5t-221.5 -91.5t-92.5 -220.5t92.5 -220.5t221.5 -91.5z" />
    <glyph glyph-name="multiply" unicode="&#xd7;" horiz-adv-x="637" 
d="M142 16l-43 44l175 175l-175 175l43 44l175 -176l176 176l43 -44l-175 -175l175 -175l-43 -44l-176 176z" />
    <glyph glyph-name="Oslash" unicode="&#xd8;" horiz-adv-x="914" 
d="M178 -10l50 75q-158 126 -158 310q0 159 114 272t273 113q97 0 196 -54l36 54h64l-56 -84q147 -122 147 -301q0 -159 -114 -272t-273 -113q-93 0 -184 46l-31 -46h-64zM269 127l344 518q-80 42 -156 42q-129 0 -221.5 -92t-92.5 -220q0 -147 126 -248zM457 63
q129 0 221.5 91.5t92.5 220.5q0 136 -115 240l-343 -517q76 -35 144 -35z" />
    <glyph glyph-name="Ugrave" unicode="&#xd9;" horiz-adv-x="650" 
d="M306 812l-143 177h99l105 -177h-61zM325 -10q-98 0 -169 66t-71 155v539h72v-539q0 -58 48 -103t120 -45q73 0 120.5 44.5t47.5 103.5v539h72v-539q0 -89 -70.5 -155t-169.5 -66z" />
    <glyph glyph-name="Uacute" unicode="&#xda;" horiz-adv-x="650" 
d="M325 820l105 177h100l-144 -177h-61zM325 -10q-98 0 -169 66t-71 155v539h72v-539q0 -58 48 -103t120 -45q73 0 120.5 44.5t47.5 103.5v539h72v-539q0 -89 -70.5 -155t-169.5 -66z" />
    <glyph glyph-name="Ucircumflex" unicode="&#xdb;" horiz-adv-x="650" 
d="M186 811l101 113h76l101 -113h-73l-66 61l-66 -61h-73zM325 -10q-98 0 -169 66t-71 155v539h72v-539q0 -58 48 -103t120 -45q73 0 120.5 44.5t47.5 103.5v539h72v-539q0 -89 -70.5 -155t-169.5 -66z" />
    <glyph glyph-name="Udieresis" unicode="&#xdc;" horiz-adv-x="650" 
d="M237 820q-24 0 -39.5 15.5t-15.5 38.5t15.5 39t39.5 16q23 0 38.5 -16t15.5 -39t-15.5 -38.5t-38.5 -15.5zM414 820q-24 0 -39.5 15.5t-15.5 38.5t15.5 39t39.5 16q23 0 38.5 -16t15.5 -39t-15.5 -38.5t-38.5 -15.5zM325 -10q-98 0 -169 66t-71 155v539h72v-539
q0 -58 48 -103t120 -45q73 0 120.5 44.5t47.5 103.5v539h72v-539q0 -89 -70.5 -155t-169.5 -66z" />
    <glyph glyph-name="Yacute" unicode="&#xdd;" horiz-adv-x="597" 
d="M299 820l105 177h100l-144 -177h-61zM263 0v366l-253 384h84l204 -310l205 310h84l-254 -384v-366h-70z" />
    <glyph glyph-name="germandbls" unicode="&#xdf;" horiz-adv-x="559" 
d="M254 -10v70q79 6 127.5 55t48.5 118t-48.5 118t-127.5 55v69q50 6 78.5 34.5t28.5 67.5q0 42 -29.5 72t-71.5 30t-71.5 -30t-29.5 -72v-577h-69v577q0 72 50 122.5t120 50.5t120 -50.5t50 -122.5q0 -70 -60 -130q129 -78 129 -214q0 -98 -68.5 -167t-176.5 -76z" />
    <glyph glyph-name="agrave" unicode="&#xe0;" 
d="M319 540l-143 177h100l104 -177h-61zM305 -10q-101 0 -173 72t-72 173t72 173t173 72q106 0 175 -74v64h70v-470h-70v64q-69 -74 -175 -74zM305 60q72 0 123.5 51.5t51.5 123.5t-51.5 123.5t-123.5 51.5t-123.5 -51.5t-51.5 -123.5t51.5 -123.5t123.5 -51.5z" />
    <glyph glyph-name="aacute" unicode="&#xe1;" 
d="M269 540l105 177h100l-144 -177h-61zM305 -10q-101 0 -173 72t-72 173t72 173t173 72q106 0 175 -74v64h70v-470h-70v64q-69 -74 -175 -74zM305 60q72 0 123.5 51.5t51.5 123.5t-51.5 123.5t-123.5 51.5t-123.5 -51.5t-51.5 -123.5t51.5 -123.5t123.5 -51.5z" />
    <glyph glyph-name="acircumflex" unicode="&#xe2;" 
d="M167 540l101 113h76l101 -113h-73l-66 61l-66 -61h-73zM305 -10q-101 0 -173 72t-72 173t72 173t173 72q106 0 175 -74v64h70v-470h-70v64q-69 -74 -175 -74zM305 60q72 0 123.5 51.5t51.5 123.5t-51.5 123.5t-123.5 51.5t-123.5 -51.5t-51.5 -123.5t51.5 -123.5
t123.5 -51.5z" />
    <glyph glyph-name="atilde" unicode="&#xe3;" 
d="M186 540l-62 21q27 44 52 64t55 20q33 0 85 -26q44 -22 58 -22q5 0 10.5 3t9.5 6.5t9 10t7.5 10.5t6.5 11.5t5 8.5l62 -20q-48 -86 -107 -86q-29 0 -76.5 25t-67.5 25q-5 0 -10.5 -3t-9.5 -6.5t-9 -10.5t-7 -10.5t-6.5 -11.5t-4.5 -9zM305 -10q-101 0 -173 72t-72 173
t72 173t173 72q106 0 175 -74v64h70v-470h-70v64q-69 -74 -175 -74zM305 60q72 0 123.5 51.5t51.5 123.5t-51.5 123.5t-123.5 51.5t-123.5 -51.5t-51.5 -123.5t51.5 -123.5t123.5 -51.5z" />
    <glyph glyph-name="adieresis" unicode="&#xe4;" 
d="M215 540q-24 0 -39.5 15.5t-15.5 38.5t15.5 39t39.5 16q23 0 38.5 -16t15.5 -39t-15.5 -38.5t-38.5 -15.5zM392 540q-24 0 -39.5 15.5t-15.5 38.5t15.5 39t39.5 16q23 0 38.5 -16t15.5 -39t-15.5 -38.5t-38.5 -15.5zM305 -10q-101 0 -173 72t-72 173t72 173t173 72
q106 0 175 -74v64h70v-470h-70v64q-69 -74 -175 -74zM305 60q72 0 123.5 51.5t51.5 123.5t-51.5 123.5t-123.5 51.5t-123.5 -51.5t-51.5 -123.5t51.5 -123.5t123.5 -51.5z" />
    <glyph glyph-name="aring" unicode="&#xe5;" 
d="M305 540q-34 0 -57.5 23.5t-23.5 56.5q0 34 23.5 57.5t57.5 23.5q33 0 57 -23.5t24 -57.5q0 -33 -24 -56.5t-57 -23.5zM305 580q17 0 28.5 12t11.5 28q0 17 -11.5 29t-28.5 12t-28.5 -12t-11.5 -29t11.5 -28.5t28.5 -11.5zM305 -10q-101 0 -173 72t-72 173t72 173t173 72
q106 0 175 -74v64h70v-470h-70v64q-69 -74 -175 -74zM305 60q72 0 123.5 51.5t51.5 123.5t-51.5 123.5t-123.5 51.5t-123.5 -51.5t-51.5 -123.5t51.5 -123.5t123.5 -51.5z" />
    <glyph glyph-name="ae" unicode="&#xe6;" horiz-adv-x="895" 
d="M196 -10q-63 0 -107 40t-44 102q0 46 25.5 83t69.5 55h222v48q0 46 -32.5 69t-80.5 23q-38 0 -69 -17t-45 -50l-64 27q22 53 70 81.5t108 28.5q56 0 101 -23.5t66 -66.5q74 90 189 90q98 0 168.5 -69t77.5 -177h-419q1 -71 52 -121.5t121 -50.5q102 0 159 105l66 -31
q-37 -70 -95.5 -108t-129.5 -38q-109 0 -183 83l-164 -71q-28 -12 -62 -12zM448 306h314q-21 46 -63.5 74t-93.5 28t-93.5 -28t-63.5 -74zM196 59q16 0 35 7l131 56v78h-207q-40 -22 -40 -68q0 -33 23.5 -53t57.5 -20z" />
    <glyph glyph-name="ccedilla" unicode="&#xe7;" horiz-adv-x="580" 
d="M267 -202v49h4q21 0 31.5 1.5t20 12t9.5 30.5q0 45 -50 45h-12l18 55q-95 6 -161.5 76.5t-66.5 167.5q0 101 72 173t173 72q73 0 134 -40.5t91 -107.5l-64 -27q-21 48 -65 76.5t-96 28.5q-72 0 -123.5 -51.5t-51.5 -123.5t51.5 -123.5t123.5 -51.5q52 0 96 28.5t64 76.5
l64 -29q-27 -64 -86.5 -104t-129.5 -42q-11 -7 -16 -34q39 0 64.5 -17.5t25.5 -53.5q0 -55 -30 -71t-90 -16z" />
    <glyph glyph-name="egrave" unicode="&#xe8;" horiz-adv-x="610" 
d="M314 540l-142 177h100l104 -177h-62zM305 -10q-101 0 -173 72t-72 173t72 173t173 72t173 -72t72 -173h-420q0 -72 51.5 -123.5t123.5 -51.5q52 0 96 28.5t64 76.5l64 -29q-28 -66 -90 -106t-134 -40zM141 295h328q-21 52 -66 83.5t-98 31.5t-98 -31.5t-66 -83.5z" />
    <glyph glyph-name="eacute" unicode="&#xe9;" horiz-adv-x="610" 
d="M265 540l105 177h100l-144 -177h-61zM305 -10q-101 0 -173 72t-72 173t72 173t173 72t173 -72t72 -173h-420q0 -72 51.5 -123.5t123.5 -51.5q52 0 96 28.5t64 76.5l64 -29q-28 -66 -90 -106t-134 -40zM141 295h328q-21 52 -66 83.5t-98 31.5t-98 -31.5t-66 -83.5z" />
    <glyph glyph-name="ecircumflex" unicode="&#xea;" horiz-adv-x="610" 
d="M166 540l101 113h76l101 -113h-73l-66 61l-66 -61h-73zM305 -10q-101 0 -173 72t-72 173t72 173t173 72t173 -72t72 -173h-420q0 -72 51.5 -123.5t123.5 -51.5q52 0 96 28.5t64 76.5l64 -29q-28 -66 -90 -106t-134 -40zM141 295h328q-21 52 -66 83.5t-98 31.5t-98 -31.5
t-66 -83.5z" />
    <glyph glyph-name="edieresis" unicode="&#xeb;" horiz-adv-x="610" 
d="M217 540q-24 0 -39.5 15.5t-15.5 38.5t15.5 39t39.5 16q23 0 38.5 -16t15.5 -39t-15.5 -38.5t-38.5 -15.5zM394 540q-24 0 -39.5 15.5t-15.5 38.5t15.5 39t39.5 16q23 0 38.5 -16t15.5 -39t-15.5 -38.5t-38.5 -15.5zM305 -10q-101 0 -173 72t-72 173t72 173t173 72
t173 -72t72 -173h-420q0 -72 51.5 -123.5t123.5 -51.5q52 0 96 28.5t64 76.5l64 -29q-28 -66 -90 -106t-134 -40zM141 295h328q-21 52 -66 83.5t-98 31.5t-98 -31.5t-66 -83.5z" />
    <glyph glyph-name="igrave" unicode="&#xec;" horiz-adv-x="258" 
d="M99 540l-144 177h101l104 -177h-61zM90 0v470h78v-470h-78z" />
    <glyph glyph-name="iacute" unicode="&#xed;" horiz-adv-x="258" 
d="M99 540l105 177h100l-144 -177h-61zM90 0v470h78v-470h-78z" />
    <glyph glyph-name="icircumflex" unicode="&#xee;" horiz-adv-x="258" 
d="M-10 540l101 113h76l101 -113h-73l-66 61l-66 -61h-73zM90 0v470h78v-470h-78z" />
    <glyph glyph-name="idieresis" unicode="&#xef;" horiz-adv-x="258" 
d="M41 540q-24 0 -39.5 15.5t-15.5 38.5t15.5 39t39.5 16q23 0 38.5 -16t15.5 -39t-15.5 -38.5t-38.5 -15.5zM218 540q-24 0 -39.5 15.5t-15.5 38.5t15.5 39t39.5 16q23 0 38.5 -16t15.5 -39t-15.5 -38.5t-38.5 -15.5zM90 0v470h78v-470h-78z" />
    <glyph glyph-name="ntilde" unicode="&#xf1;" horiz-adv-x="535" 
d="M155 540l-62 21q27 44 51.5 64t54.5 20q32 0 86 -26q44 -22 58 -22q5 0 10.5 3t9.5 6.5t9 10t7.5 10.5t6.5 11.5t5 8.5l62 -20q-50 -86 -108 -86q-28 0 -76 25t-67 25q-5 0 -10.5 -3t-9.5 -6.5t-9 -10.5t-7 -10.5t-6.5 -11.5t-4.5 -9zM90 0v470h70v-49q44 59 125 59
q75 0 122.5 -53t47.5 -129v-298h-70v298q0 46 -30.5 79t-76.5 33t-82 -32t-36 -77v-301h-70z" />
    <glyph glyph-name="ograve" unicode="&#xf2;" horiz-adv-x="610" 
d="M275 540l-143 177h100l104 -177h-61zM305 -10q-101 0 -173 72t-72 173t72 173t173 72t173 -72t72 -173t-72 -173t-173 -72zM305 60q72 0 123.5 51.5t51.5 123.5t-51.5 123.5t-123.5 51.5t-123.5 -51.5t-51.5 -123.5t51.5 -123.5t123.5 -51.5z" />
    <glyph glyph-name="oacute" unicode="&#xf3;" horiz-adv-x="610" 
d="M305 540l105 177h100l-144 -177h-61zM305 -10q-101 0 -173 72t-72 173t72 173t173 72t173 -72t72 -173t-72 -173t-173 -72zM305 60q72 0 123.5 51.5t51.5 123.5t-51.5 123.5t-123.5 51.5t-123.5 -51.5t-51.5 -123.5t51.5 -123.5t123.5 -51.5z" />
    <glyph glyph-name="ocircumflex" unicode="&#xf4;" horiz-adv-x="610" 
d="M166 540l101 113h76l101 -113h-73l-66 61l-66 -61h-73zM305 -10q-101 0 -173 72t-72 173t72 173t173 72t173 -72t72 -173t-72 -173t-173 -72zM305 60q72 0 123.5 51.5t51.5 123.5t-51.5 123.5t-123.5 51.5t-123.5 -51.5t-51.5 -123.5t51.5 -123.5t123.5 -51.5z" />
    <glyph glyph-name="otilde" unicode="&#xf5;" horiz-adv-x="610" 
d="M187 540l-62 21q27 44 52 64t55 20q33 0 85 -26q44 -22 58 -22q5 0 10.5 3t9.5 6.5t9 10t7.5 10.5t6.5 11.5t5 8.5l62 -20q-48 -86 -107 -86q-28 0 -76.5 25t-67.5 25q-5 0 -10.5 -3t-9.5 -6.5t-9 -10.5t-7 -10.5t-6.5 -11.5t-4.5 -9zM305 -10q-101 0 -173 72t-72 173
t72 173t173 72t173 -72t72 -173t-72 -173t-173 -72zM305 60q72 0 123.5 51.5t51.5 123.5t-51.5 123.5t-123.5 51.5t-123.5 -51.5t-51.5 -123.5t51.5 -123.5t123.5 -51.5z" />
    <glyph glyph-name="odieresis" unicode="&#xf6;" horiz-adv-x="610" 
d="M217 540q-24 0 -39.5 15.5t-15.5 38.5t15.5 39t39.5 16q23 0 38.5 -16t15.5 -39t-15.5 -38.5t-38.5 -15.5zM394 540q-24 0 -39.5 15.5t-15.5 38.5t15.5 39t39.5 16q23 0 38.5 -16t15.5 -39t-15.5 -38.5t-38.5 -15.5zM305 -10q-101 0 -173 72t-72 173t72 173t173 72
t173 -72t72 -173t-72 -173t-173 -72zM305 60q72 0 123.5 51.5t51.5 123.5t-51.5 123.5t-123.5 51.5t-123.5 -51.5t-51.5 -123.5t51.5 -123.5t123.5 -51.5z" />
    <glyph glyph-name="divide" unicode="&#xf7;" horiz-adv-x="698" 
d="M355 342q-21 0 -34.5 14t-13.5 34t13.5 34t34.5 14t34.5 -14t13.5 -34t-13.5 -34t-34.5 -14zM70 203v62h558v-62h-558zM355 32q-21 0 -34.5 14t-13.5 34t13.5 34t34.5 14t34.5 -14t13.5 -34t-13.5 -34t-34.5 -14z" />
    <glyph glyph-name="oslash" unicode="&#xf8;" horiz-adv-x="610" 
d="M115 -74l54 106q-109 79 -109 203q0 101 72 173t173 72q40 0 85 -15l33 67h73l-49 -98q103 -80 103 -199q0 -101 -72 -173t-173 -72q-35 0 -78 13l-39 -77h-73zM203 97l153 302q-28 9 -51 9q-71 0 -122 -51t-51 -122q0 -79 71 -138zM305 62q71 0 122 51t51 122
q0 74 -65 133l-152 -299q28 -7 44 -7z" />
    <glyph glyph-name="ugrave" unicode="&#xf9;" horiz-adv-x="517" 
d="M228 540l-143 177h100l104 -177h-61zM258 -10q-76 0 -129.5 53.5t-53.5 129.5v297h70v-297q0 -46 33.5 -79.5t79.5 -33.5q47 0 80.5 33.5t33.5 79.5v297h70v-297q0 -76 -54 -129.5t-130 -53.5z" />
    <glyph glyph-name="uacute" unicode="&#xfa;" horiz-adv-x="517" 
d="M229 540l105 177h100l-144 -177h-61zM258 -10q-76 0 -129.5 53.5t-53.5 129.5v297h70v-297q0 -46 33.5 -79.5t79.5 -33.5q47 0 80.5 33.5t33.5 79.5v297h70v-297q0 -76 -54 -129.5t-130 -53.5z" />
    <glyph glyph-name="ucircumflex" unicode="&#xfb;" horiz-adv-x="517" 
d="M120 540l101 113h76l101 -113h-73l-66 61l-66 -61h-73zM258 -10q-76 0 -129.5 53.5t-53.5 129.5v297h70v-297q0 -46 33.5 -79.5t79.5 -33.5q47 0 80.5 33.5t33.5 79.5v297h70v-297q0 -76 -54 -129.5t-130 -53.5z" />
    <glyph glyph-name="udieresis" unicode="&#xfc;" horiz-adv-x="517" 
d="M171 540q-24 0 -39.5 15.5t-15.5 38.5t15.5 39t39.5 16q23 0 38.5 -16t15.5 -39t-15.5 -38.5t-38.5 -15.5zM348 540q-24 0 -39.5 15.5t-15.5 38.5t15.5 39t39.5 16q23 0 38.5 -16t15.5 -39t-15.5 -38.5t-38.5 -15.5zM258 -10q-76 0 -129.5 53.5t-53.5 129.5v297h70v-297
q0 -46 33.5 -79.5t79.5 -33.5q47 0 80.5 33.5t33.5 79.5v297h70v-297q0 -76 -54 -129.5t-130 -53.5z" />
    <glyph glyph-name="yacute" unicode="&#xfd;" horiz-adv-x="530" 
d="M215 540l105 177h100l-144 -177h-61zM119 -245l118 273l-207 442h80l164 -364l148 364h78l-304 -715h-77z" />
    <glyph glyph-name="ydieresis" unicode="&#xff;" horiz-adv-x="530" 
d="M177 540q-24 0 -39.5 15.5t-15.5 38.5t15.5 39t39.5 16q23 0 38.5 -16t15.5 -39t-15.5 -38.5t-38.5 -15.5zM354 540q-24 0 -39.5 15.5t-15.5 38.5t15.5 39t39.5 16q23 0 38.5 -16t15.5 -39t-15.5 -38.5t-38.5 -15.5zM119 -245l118 273l-207 442h80l164 -364l148 364h78
l-304 -715h-77z" />
    <glyph glyph-name="Abreve" unicode="&#x102;" horiz-adv-x="670" 
d="M335 840q-135 0 -135 115h62q0 -35 16 -48.5t57 -13.5t57 13.5t16 48.5h62q0 -115 -135 -115zM5 0l330 780l330 -780h-80l-68 161h-363l-68 -161h-81zM182 229h307l-154 367z" />
    <glyph glyph-name="abreve" unicode="&#x103;" 
d="M305 540q-135 0 -135 115h62q0 -35 16 -48.5t57 -13.5t57 13.5t16 48.5h62q0 -115 -135 -115zM305 -10q-101 0 -173 72t-72 173t72 173t173 72q106 0 175 -74v64h70v-470h-70v64q-69 -74 -175 -74zM305 60q72 0 123.5 51.5t51.5 123.5t-51.5 123.5t-123.5 51.5
t-123.5 -51.5t-51.5 -123.5t51.5 -123.5t123.5 -51.5z" />
    <glyph glyph-name="Aogonek" unicode="&#x104;" horiz-adv-x="670" 
d="M616 -194q-22 0 -41.5 3.5t-39 11t-31 24t-11.5 39.5q0 66 92 116l-68 161h-363l-68 -161h-81l330 780l330 -780q-5 -2 -12.5 -4.5t-27.5 -12.5t-35 -21.5t-27.5 -29t-12.5 -36.5q0 -26 17.5 -34t48.5 -8v-48zM182 229h307l-154 367z" />
    <glyph glyph-name="aogonek" unicode="&#x105;" 
d="M516 -204q-22 0 -41.5 3.5t-39 11t-31 24t-11.5 39.5q0 67 87 126v64q-69 -74 -175 -74q-101 0 -173 72t-72 173t72 173t173 72q106 0 175 -74v64h70v-470q-4 -2 -11 -6t-24 -17t-30 -25.5t-24 -30.5t-11 -35q0 -26 17.5 -34t48.5 -8v-48zM305 60q72 0 123.5 51.5
t51.5 123.5t-51.5 123.5t-123.5 51.5t-123.5 -51.5t-51.5 -123.5t51.5 -123.5t123.5 -51.5z" />
    <glyph glyph-name="Cacute" unicode="&#x106;" horiz-adv-x="761" 
d="M455 820l105 177h100l-144 -177h-61zM455 -10q-159 0 -272 113t-113 272t113 272t272 113q156 0 276 -116l-53 -49q-104 92 -223 92q-129 0 -220.5 -91.5t-91.5 -220.5t91.5 -220.5t220.5 -91.5q115 0 223 92l54 -48q-121 -117 -277 -117z" />
    <glyph glyph-name="cacute" unicode="&#x107;" horiz-adv-x="580" 
d="M275 540l105 177h100l-144 -177h-61zM305 -10q-101 0 -173 72t-72 173t72 173t173 72q73 0 134 -40.5t91 -107.5l-64 -27q-21 48 -65 76.5t-96 28.5q-72 0 -123.5 -51.5t-51.5 -123.5t51.5 -123.5t123.5 -51.5q52 0 96 28.5t64 76.5l64 -29q-28 -66 -90 -106t-134 -40z
" />
    <glyph glyph-name="Ccaron" unicode="&#x10c;" horiz-adv-x="761" 
d="M417 820l-101 113h73l66 -61l66 61h73l-101 -113h-76zM455 -10q-159 0 -272 113t-113 272t113 272t272 113q156 0 276 -116l-53 -49q-104 92 -223 92q-129 0 -220.5 -91.5t-91.5 -220.5t91.5 -220.5t220.5 -91.5q115 0 223 92l54 -48q-121 -117 -277 -117z" />
    <glyph glyph-name="ccaron" unicode="&#x10d;" horiz-adv-x="580" 
d="M267 540l-101 113h73l66 -61l66 61h73l-101 -113h-76zM305 -10q-101 0 -173 72t-72 173t72 173t173 72q73 0 134 -40.5t91 -107.5l-64 -27q-21 48 -65 76.5t-96 28.5q-72 0 -123.5 -51.5t-51.5 -123.5t51.5 -123.5t123.5 -51.5q52 0 96 28.5t64 76.5l64 -29
q-28 -66 -90 -106t-134 -40z" />
    <glyph glyph-name="Dcaron" unicode="&#x10e;" horiz-adv-x="695" 
d="M330 820l-101 113h73l66 -61l66 61h73l-101 -113h-76zM90 0v750h169q176 0 281 -99t105 -274t-105.5 -276t-280.5 -101h-169zM166 73h93q145 0 229 79.5t84 224.5q0 144 -83.5 222t-229.5 78h-93v-604z" />
    <glyph glyph-name="dcaron" unicode="&#x10f;" 
d="M305 -10q-101 0 -173 72t-72 173t72 173t173 72q106 0 175 -74v344h70v-750h-70v64q-69 -74 -175 -74zM602 532l44 218h94l-80 -218h-58zM305 60q72 0 123.5 51.5t51.5 123.5t-51.5 123.5t-123.5 51.5t-123.5 -51.5t-51.5 -123.5t51.5 -123.5t123.5 -51.5z" />
    <glyph glyph-name="Dcroat" unicode="&#x110;" horiz-adv-x="715" 
d="M89 0v336h-82v65h82v349h169q176 0 281 -99t105 -274t-105.5 -276t-280.5 -101h-169zM165 73h93q145 0 229 80t84 224t-83.5 222t-229.5 78h-93v-276h147v-65h-147v-263z" />
    <glyph glyph-name="dcroat" unicode="&#x111;" horiz-adv-x="637" 
d="M302 -10q-101 0 -173 72t-72 173t72 173t173 72q104 0 175 -74v140h-145v65h145v139h70v-139h90v-65h-90v-546h-70v64q-71 -74 -175 -74zM302 62q71 0 122 51t51 122t-51 122t-122 51t-121.5 -51t-50.5 -122t50.5 -122t121.5 -51z" />
    <glyph glyph-name="Eogonek" unicode="&#x118;" horiz-adv-x="542" 
d="M453 -196q-22 0 -41.5 3.5t-39 11t-31 24t-11.5 39.5q0 33 28 64.5t65 53.5h-333v750h382v-73h-307v-265h268v-74h-268v-265h307v-73q-25 0 -55 -37t-30 -69q0 -26 17.5 -34t48.5 -8v-48z" />
    <glyph glyph-name="eogonek" unicode="&#x119;" horiz-adv-x="610" 
d="M306 -204q-22 0 -41.5 3.5t-39 11t-31 24t-11.5 39.5q0 61 93 118q-91 11 -153.5 80.5t-62.5 162.5q0 101 72 173t173 72t173 -72t72 -173h-420q0 -72 51.5 -123.5t123.5 -51.5q52 0 96 28.5t64 76.5l64 -29q-27 -63 -85.5 -103t-127.5 -43q-25 -7 -50.5 -41t-25.5 -63
q0 -26 17.5 -34t48.5 -8v-48zM141 295h328q-21 52 -66 83.5t-98 31.5t-98 -31.5t-66 -83.5z" />
    <glyph glyph-name="Ecaron" unicode="&#x11a;" horiz-adv-x="542" 
d="M243 820l-101 113h73l66 -61l66 61h73l-101 -113h-76zM90 0v750h382v-73h-307v-265h268v-74h-268v-265h307v-73h-382z" />
    <glyph glyph-name="ecaron" unicode="&#x11b;" horiz-adv-x="610" 
d="M267 540l-101 113h73l66 -61l66 61h73l-101 -113h-76zM305 -10q-101 0 -173 72t-72 173t72 173t173 72t173 -72t72 -173h-420q0 -72 51.5 -123.5t123.5 -51.5q52 0 96 28.5t64 76.5l64 -29q-28 -66 -90 -106t-134 -40zM141 295h328q-21 52 -66 83.5t-98 31.5t-98 -31.5
t-66 -83.5z" />
    <glyph glyph-name="dotlessi" unicode="&#x131;" horiz-adv-x="258" 
d="M90 0v470h78v-470h-78z" />
    <glyph glyph-name="Lacute" unicode="&#x139;" horiz-adv-x="446" 
d="M127 820l105 177h100l-144 -177h-61zM90 0v750h75v-677h241v-73h-316z" />
    <glyph glyph-name="lacute" unicode="&#x13a;" horiz-adv-x="250" 
d="M95 810l105 177h100l-144 -177h-61zM90 0v750h70v-750h-70z" />
    <glyph glyph-name="Lcaron" unicode="&#x13d;" horiz-adv-x="446" 
d="M90 0v750h75v-677h241v-73h-316zM278 532l44 218h84l-80 -218h-48z" />
    <glyph glyph-name="lcaron" unicode="&#x13e;" horiz-adv-x="262" 
d="M90 0v750h70v-750h-70zM204 532l44 218h94l-80 -218h-58z" />
    <glyph glyph-name="Lslash" unicode="&#x141;" horiz-adv-x="446" 
d="M90 0v289l-59 -35l-32 56l91 54v386h75v-342l50 30l33 -57l-83 -48v-260h241v-73h-316z" />
    <glyph glyph-name="lslash" unicode="&#x142;" horiz-adv-x="255" 
d="M90 0v289l-59 -35l-32 56l91 54v386h75v-342l50 30l33 -57l-83 -48v-333h-75z" />
    <glyph glyph-name="Nacute" unicode="&#x143;" horiz-adv-x="740" 
d="M318 840l105 177h100l-144 -177h-61zM650 -37l-489 603v-567h-71v781l489 -610v580h71v-787z" />
    <glyph glyph-name="nacute" unicode="&#x144;" horiz-adv-x="535" 
d="M273 540l105 177h100l-144 -177h-61zM90 0v470h70v-49q44 59 125 59q75 0 122.5 -53t47.5 -129v-298h-70v298q0 46 -30.5 79t-76.5 33t-82 -32t-36 -77v-301h-70z" />
    <glyph glyph-name="Ncaron" unicode="&#x147;" horiz-adv-x="740" 
d="M354 840l-101 113h73l66 -61l66 61h73l-101 -113h-76zM650 -37l-489 603v-567h-71v781l489 -610v580h71v-787z" />
    <glyph glyph-name="ncaron" unicode="&#x148;" horiz-adv-x="535" 
d="M235 540l-101 113h73l66 -61l66 61h73l-101 -113h-76zM90 0v470h70v-49q44 59 125 59q75 0 122.5 -53t47.5 -129v-298h-70v298q0 46 -30.5 79t-76.5 33t-82 -32t-36 -77v-301h-70z" />
    <glyph glyph-name="Ohungarumlaut" unicode="&#x150;" horiz-adv-x="894" 
d="M342 820l105 177h99l-143 -177h-61zM492 820l104 177h100l-143 -177h-61zM447 -10q-159 0 -273 113t-114 272t114 272t273 113t273 -113t114 -272t-114 -272t-273 -113zM447 63q129 0 221.5 91.5t92.5 220.5t-92.5 220.5t-221.5 91.5t-221.5 -91.5t-92.5 -220.5
t92.5 -220.5t221.5 -91.5z" />
    <glyph glyph-name="ohungarumlaut" unicode="&#x151;" horiz-adv-x="610" 
d="M200 540l105 177h99l-143 -177h-61zM350 540l104 177h100l-143 -177h-61zM305 -10q-101 0 -173 72t-72 173t72 173t173 72t173 -72t72 -173t-72 -173t-173 -72zM305 60q72 0 123.5 51.5t51.5 123.5t-51.5 123.5t-123.5 51.5t-123.5 -51.5t-51.5 -123.5t51.5 -123.5
t123.5 -51.5z" />
    <glyph glyph-name="OE" unicode="&#x152;" horiz-adv-x="1257" 
d="M462 -10q-162 0 -277 113t-115 272t115.5 272t276.5 113q97 0 182 -44t139 -120v154h404v-73h-331v-265h290v-74h-290v-265h331v-73h-404v154q-54 -76 -139 -120t-182 -44zM462 63q131 0 224.5 91.5t93.5 220.5q0 128 -93.5 220t-224.5 92t-224.5 -92t-93.5 -220
q0 -129 94 -220.5t224 -91.5z" />
    <glyph glyph-name="oe" unicode="&#x153;" horiz-adv-x="1030" 
d="M306 -10q-102 0 -174 72t-72 173t72 173t174 72q126 0 209 -118q83 118 209 118q99 0 169.5 -69.5t77.5 -176.5h-419q6 -76 55 -124t117 -48q48 0 90 27t69 78l67 -30q-35 -70 -95.5 -108.5t-130.5 -38.5q-126 0 -209 118q-83 -118 -209 -118zM306 62q71 0 121.5 51
t50.5 122t-50.5 122t-121.5 51t-121.5 -51t-50.5 -122t50.5 -122t121.5 -51zM569 306h311q-55 102 -156 102q-100 0 -155 -102z" />
    <glyph glyph-name="Racute" unicode="&#x154;" horiz-adv-x="581" 
d="M203 820l105 177h100l-144 -177h-61zM90 0v750h225q86 0 147 -61.5t61 -148.5q0 -65 -38 -118t-105 -79l171 -343h-81l-165 331h-140v-331h-75zM165 405h150q57 0 96.5 39.5t39.5 95.5t-39.5 96.5t-96.5 40.5h-150v-272z" />
    <glyph glyph-name="racute" unicode="&#x155;" horiz-adv-x="365" 
d="M148 540l106 177h100l-144 -177h-62zM90 0v470h70v-62q25 46 71 63.5t104 -1.5v-70q-78 26 -126.5 -14t-48.5 -127v-259h-70z" />
    <glyph glyph-name="Rcaron" unicode="&#x158;" horiz-adv-x="581" 
d="M249 820l-101 113h73l66 -61l66 61h73l-101 -113h-76zM90 0v750h225q86 0 147 -61.5t61 -148.5q0 -65 -38 -118t-105 -79l171 -343h-81l-165 331h-140v-331h-75zM165 405h150q57 0 96.5 39.5t39.5 95.5t-39.5 96.5t-96.5 40.5h-150v-272z" />
    <glyph glyph-name="rcaron" unicode="&#x159;" horiz-adv-x="365" 
d="M175 540l-101 113h73l66 -61l66 61h73l-101 -113h-76zM90 0v470h70v-62q40 72 119 72q29 0 56 -10v-70q-29 10 -56 10q-55 0 -87 -40.5t-32 -110.5v-259h-70z" />
    <glyph glyph-name="Sacute" unicode="&#x15a;" horiz-adv-x="543" 
d="M223 820l105 177h100l-144 -177h-61zM260 -10q-68 0 -127 36.5t-94 103.5l67 29q25 -46 67 -70.5t86 -24.5q61 0 111 39t50 98q0 42 -28 70.5t-81 53.5q-8 4 -64 27q-38 16 -62.5 29.5t-54 36.5t-44 55.5t-14.5 74.5q0 88 62 150t148 62q109 0 184 -106l-69 -30
q-46 62 -113 62q-57 0 -98 -40.5t-41 -94.5q0 -45 29 -72.5t80 -50.5q11 -5 43 -18t47.5 -20t43.5 -22t42.5 -29t31 -34t24 -45t7.5 -55q0 -94 -71 -154.5t-162 -60.5z" />
    <glyph glyph-name="sacute" unicode="&#x15b;" horiz-adv-x="383" 
d="M152 540l105 177h100l-144 -177h-61zM189 -10q-50 0 -92.5 28.5t-56.5 75.5l65 28q4 -27 29.5 -44.5t54.5 -17.5q32 0 58 19.5t26 50.5q0 24 -23 41t-55.5 29t-64.5 26.5t-55 43.5t-23 70q0 58 41 99t99 41q42 0 76.5 -22.5t51.5 -60.5l-64 -28q-20 41 -64 41
q-29 0 -49.5 -20.5t-20.5 -49.5q0 -24 23 -40.5t55.5 -28.5t64.5 -27t55 -43.5t23 -70.5q0 -60 -46.5 -100t-107.5 -40z" />
    <glyph glyph-name="Scedilla" unicode="&#x15e;" horiz-adv-x="543" 
d="M221 -202v49h4q21 0 31.5 1.5t20 12t9.5 30.5q0 45 -50 45h-12l18 55q-62 5 -116 40.5t-87 98.5l67 29q25 -46 67 -70.5t86 -24.5q61 0 111 39t50 98q0 44 -27.5 71t-81.5 53q-6 3 -64 27q-38 16 -64.5 30.5t-54.5 37.5t-42 55.5t-14 73.5q0 87 62 149t149 62
q108 0 183 -106l-69 -30q-46 62 -114 62q-56 0 -97 -40.5t-41 -96.5q0 -43 28 -70t81 -51q12 -5 44.5 -18.5t48.5 -21t43.5 -22t42 -29t30.5 -34.5t23 -45.5t7 -56.5q0 -88 -68.5 -148t-157.5 -63q-11 -7 -16 -34q39 0 64.5 -17.5t25.5 -53.5q0 -55 -30 -71t-90 -16z" />
    <glyph glyph-name="scedilla" unicode="&#x15f;" horiz-adv-x="383" 
d="M151 -202v49h4q21 0 31.5 1.5t20 12t9.5 30.5q0 45 -50 45h-12l18 55q-45 5 -82.5 32.5t-49.5 70.5l65 28q4 -27 29.5 -44.5t54.5 -17.5q32 0 58 19.5t26 50.5q0 24 -23 41t-55.5 29t-64.5 26.5t-55 43.5t-23 70q0 58 41 99t99 41q42 0 76.5 -22.5t51.5 -60.5l-64 -28
q-20 41 -64 41q-29 0 -49.5 -20.5t-20.5 -49.5q0 -24 23 -40.5t55.5 -28.5t64.5 -27t55 -43.5t23 -70.5q0 -57 -44 -97t-102 -43q-11 -7 -16 -34q39 0 64.5 -17.5t25.5 -53.5q0 -55 -30 -71t-90 -16z" />
    <glyph glyph-name="Scaron" unicode="&#x160;" horiz-adv-x="543" 
d="M245 820l-101 113h73l66 -61l66 61h73l-101 -113h-76zM259 -10q-66 0 -125.5 36.5t-94.5 103.5l67 29q25 -46 67 -70.5t86 -24.5q61 0 111 39t50 98q0 44 -27.5 71t-81.5 53q-6 3 -64 27q-38 16 -64.5 30.5t-54.5 37.5t-42 55.5t-14 73.5q0 87 62 149t149 62
q108 0 183 -106l-69 -30q-46 62 -114 62q-56 0 -97 -40.5t-41 -96.5q0 -43 28 -70t81 -51q12 -5 44.5 -18.5t48.5 -21t43.5 -22t42 -29t30.5 -34.5t23 -45.5t7 -56.5q0 -91 -71 -151t-163 -60z" />
    <glyph glyph-name="scaron" unicode="&#x161;" horiz-adv-x="383" 
d="M154 540l-101 113h73l66 -61l66 61h73l-101 -113h-76zM189 -10q-50 0 -92.5 28.5t-56.5 75.5l65 28q4 -27 29.5 -44.5t54.5 -17.5q32 0 58 19.5t26 50.5q0 24 -23 41t-55.5 29t-64.5 26.5t-55 43.5t-23 70q0 58 41 99t99 41q42 0 76.5 -22.5t51.5 -60.5l-64 -28
q-20 41 -64 41q-29 0 -49.5 -20.5t-20.5 -49.5q0 -24 23 -40.5t55.5 -28.5t64.5 -27t55 -43.5t23 -70.5q0 -60 -46.5 -100t-107.5 -40z" />
    <glyph glyph-name="uni0162" unicode="&#x162;" horiz-adv-x="473" 
d="M199 -192v49h4q21 0 31.5 1.5t20 12t9.5 30.5q0 45 -50 45h-12l17 54h-17v677h-197v73h463v-73h-197v-677h-27q-10 -8 -15 -34q39 0 64.5 -17.5t25.5 -53.5q0 -55 -30 -71t-90 -16z" />
    <glyph glyph-name="uni0163" unicode="&#x163;" horiz-adv-x="338" 
d="M141 -195v49h4q21 0 31.5 1.5t20 12t9.5 30.5q0 46 -50 46q-2 0 -6 -0.5t-6 -0.5q2 6 5.5 17t8 24t5.5 16h-33v401h-81v69h81v167h76v-167h83v-69h-83v-401h-11q-16 0 -24 -37q39 0 64.5 -17.5t25.5 -53.5q0 -55 -30 -71t-90 -16z" />
    <glyph glyph-name="Tcaron" unicode="&#x164;" horiz-adv-x="473" 
d="M199 820l-101 113h73l66 -61l66 61h73l-101 -113h-76zM202 0v677h-197v73h463v-73h-197v-677h-69z" />
    <glyph glyph-name="tcaron" unicode="&#x165;" horiz-adv-x="338" 
d="M250 520l44 218h84l-80 -218h-48zM131 0v400h-81v70h81v167h70v-167h87v-70h-87v-400h-70z" />
    <glyph glyph-name="Uring" unicode="&#x16e;" horiz-adv-x="650" 
d="M325 820q-34 0 -57.5 23.5t-23.5 56.5q0 34 23.5 57.5t57.5 23.5q33 0 57 -23.5t24 -57.5q0 -33 -24 -56.5t-57 -23.5zM325 860q17 0 28.5 12t11.5 28q0 17 -11.5 29t-28.5 12t-28.5 -12t-11.5 -29t11.5 -28.5t28.5 -11.5zM325 -10q-98 0 -169 66t-71 155v539h72v-539
q0 -58 48 -103t120 -45q73 0 120.5 44.5t47.5 103.5v539h72v-539q0 -89 -70.5 -155t-169.5 -66z" />
    <glyph glyph-name="uring" unicode="&#x16f;" horiz-adv-x="517" 
d="M259 540q-34 0 -57.5 23.5t-23.5 56.5q0 34 23.5 57.5t57.5 23.5q33 0 57 -23.5t24 -57.5q0 -33 -24 -56.5t-57 -23.5zM259 580q17 0 28.5 12t11.5 28q0 17 -11.5 29t-28.5 12t-28.5 -12t-11.5 -29t11.5 -28.5t28.5 -11.5zM258 -10q-76 0 -129.5 53.5t-53.5 129.5v297h70
v-297q0 -46 33.5 -79.5t79.5 -33.5q47 0 80.5 33.5t33.5 79.5v297h70v-297q0 -76 -54 -129.5t-130 -53.5z" />
    <glyph glyph-name="Uhungarumlaut" unicode="&#x170;" horiz-adv-x="650" 
d="M220 820l105 177h99l-143 -177h-61zM370 820l104 177h100l-143 -177h-61zM325 -10q-98 0 -169 66t-71 155v539h72v-539q0 -58 48 -103t120 -45q73 0 120.5 44.5t47.5 103.5v539h72v-539q0 -89 -70.5 -155t-169.5 -66z" />
    <glyph glyph-name="uhungarumlaut" unicode="&#x171;" horiz-adv-x="517" 
d="M153 540l105 177h99l-143 -177h-61zM303 540l104 177h100l-143 -177h-61zM258 -10q-76 0 -129.5 53.5t-53.5 129.5v297h70v-297q0 -46 33.5 -79.5t79.5 -33.5q47 0 80.5 33.5t33.5 79.5v297h70v-297q0 -76 -54 -129.5t-130 -53.5z" />
    <glyph glyph-name="Ydieresis" unicode="&#x178;" horiz-adv-x="597" 
d="M211 820q-24 0 -39.5 15.5t-15.5 38.5t15.5 39t39.5 16q23 0 38.5 -16t15.5 -39t-15.5 -38.5t-38.5 -15.5zM388 820q-24 0 -39.5 15.5t-15.5 38.5t15.5 39t39.5 16q23 0 38.5 -16t15.5 -39t-15.5 -38.5t-38.5 -15.5zM263 0v366l-253 384h84l204 -310l205 310h84
l-254 -384v-366h-70z" />
    <glyph glyph-name="Zacute" unicode="&#x179;" horiz-adv-x="628" 
d="M320 820l105 177h100l-144 -177h-61zM30 0l431 680h-410v70h537l-432 -680h432v-70h-558z" />
    <glyph glyph-name="zacute" unicode="&#x17a;" horiz-adv-x="487" 
d="M195 540l105 177h100l-144 -177h-61zM20 0v4l304 401h-272v65h405l-305 -406h304v-64h-436z" />
    <glyph glyph-name="Zdotaccent" unicode="&#x17b;" horiz-adv-x="628" 
d="M320 820q-16 0 -26.5 10.5t-10.5 26.5t10.5 26.5t26.5 10.5t26.5 -10.5t10.5 -26.5t-10.5 -26.5t-26.5 -10.5zM30 0l431 680h-410v70h537l-432 -680h432v-70h-558z" />
    <glyph glyph-name="zdotaccent" unicode="&#x17c;" horiz-adv-x="487" 
d="M255 540q-16 0 -26.5 10.5t-10.5 26.5t10.5 26.5t26.5 10.5t26.5 -10.5t10.5 -26.5t-10.5 -26.5t-26.5 -10.5zM20 0v4l304 401h-272v65h405l-305 -406h304v-64h-436z" />
    <glyph glyph-name="Zcaron" unicode="&#x17d;" horiz-adv-x="628" 
d="M282 820l-101 113h73l66 -61l66 61h73l-101 -113h-76zM30 0l431 680h-410v70h537l-432 -680h432v-70h-558z" />
    <glyph glyph-name="zcaron" unicode="&#x17e;" horiz-adv-x="487" 
d="M217 540l-101 113h73l66 -61l66 61h73l-101 -113h-76zM20 0v4l304 401h-272v65h405l-305 -406h304v-64h-436z" />
    <glyph glyph-name="florin" unicode="&#x192;" horiz-adv-x="542" 
d="M40 -166v71q69 5 113.5 42t54.5 94l41 221h-101v70h113l16 84q10 53 50.5 87t93.5 34h81v-70h-81q-28 0 -49.5 -18t-26.5 -46l-13 -71h119v-70h-132l-43 -234q-14 -81 -78 -134.5t-158 -59.5z" />
    <glyph glyph-name="circumflex" unicode="&#x2c6;" horiz-adv-x="0" 
d="M-149 563l101 113h76l101 -113h-73l-66 61l-66 -61h-73z" />
    <glyph glyph-name="caron" unicode="&#x2c7;" horiz-adv-x="0" 
d="M-58 563l-101 113h73l66 -61l66 61h73l-101 -113h-76z" />
    <glyph glyph-name="breve" unicode="&#x2d8;" horiz-adv-x="0" 
d="M-10 645q-135 0 -135 115h62q0 -35 16 -48.5t57 -13.5t57 13.5t16 48.5h62q0 -115 -135 -115z" />
    <glyph glyph-name="dotaccent" unicode="&#x2d9;" horiz-adv-x="0" 
d="M0 562q-16 0 -26.5 10.5t-10.5 26.5t10.5 26.5t26.5 10.5t26.5 -10.5t10.5 -26.5t-10.5 -26.5t-26.5 -10.5z" />
    <glyph glyph-name="ring" unicode="&#x2da;" horiz-adv-x="0" 
d="M-10 556q-34 0 -57.5 23.5t-23.5 56.5q0 34 23.5 57.5t57.5 23.5q33 0 57 -23.5t24 -57.5q0 -33 -24 -56.5t-57 -23.5zM-10 596q16 0 28 12t12 28q0 17 -11.5 29t-28.5 12t-28.5 -12t-11.5 -29t11.5 -28.5t28.5 -11.5z" />
    <glyph glyph-name="ogonek" unicode="&#x2db;" horiz-adv-x="0" 
d="M11 -196q-22 0 -41.5 3.5t-39 11t-31 24t-11.5 39.5q0 36 31.5 68.5t70.5 54.5l40 -5q-25 0 -55 -37t-30 -69q0 -26 17.5 -34t48.5 -8v-48z" />
    <glyph glyph-name="tilde" unicode="&#x2dc;" horiz-adv-x="0" 
d="M-128 566l-62 21q27 44 52 64t55 20q33 0 85 -26q44 -22 58 -22q5 0 10.5 3t9.5 6.5t9 10t7.5 10.5t6.5 11.5t5 8.5l62 -20q-48 -86 -107 -86q-29 0 -76.5 25t-67.5 25q-5 0 -10.5 -3t-9.5 -6.5t-9 -10.5t-7 -10.5t-6.5 -11.5t-4.5 -9z" />
    <glyph glyph-name="hungarumlaut" unicode="&#x2dd;" horiz-adv-x="0" 
d="M-118 573l105 177h99l-143 -177h-61zM32 573l104 177h100l-143 -177h-61z" />
    <glyph glyph-name="uni0394" unicode="&#x394;" horiz-adv-x="641" 
d="M32 0l288 494l287 -494h-575zM154 70h331l-165 284z" />
    <glyph glyph-name="uni03A9" unicode="&#x3a9;" horiz-adv-x="893" 
d="M70 0v70h124q-124 134 -124 296q0 163 110.5 278.5t266.5 115.5t266.5 -115.5t110.5 -278.5q0 -162 -124 -296h124v-70h-238l-15 64q86 47 134.5 128t48.5 174q0 134 -90 229t-217 95t-217 -95t-90 -229q0 -93 48.5 -174t134.5 -128l-15 -64h-238z" />
    <glyph glyph-name="uni03BC" unicode="&#x3bc;" horiz-adv-x="544" 
d="M105 -205v675h65v-308q0 -48 30 -80t72 -32t72.5 32.5t30.5 79.5v308h65v-480h-65v27q-48 -37 -103 -37q-54 0 -102 37v-222h-65z" />
    <glyph glyph-name="pi" unicode="&#x3c0;" horiz-adv-x="602" 
d="M528 -12q-64 7 -101 46t-37 93v274h-181v-401h-67v401h-67v70h453v-70h-71v-274q0 -27 18 -45.5t53 -24.5v-69z" />
    <glyph glyph-name="endash" unicode="&#x2013;" horiz-adv-x="674" 
d="M70 201v75h534v-75h-534z" />
    <glyph glyph-name="emdash" unicode="&#x2014;" horiz-adv-x="768" 
d="M0 201v75h768v-75h-768z" />
    <glyph glyph-name="quoteleft" unicode="&#x2018;" horiz-adv-x="193" 
d="M20 512l91 238h58l-57 -238h-92z" />
    <glyph glyph-name="quoteright" unicode="&#x2019;" horiz-adv-x="193" 
d="M23 512l58 238h92l-112 -238h-38z" />
    <glyph glyph-name="quotesinglbase" unicode="&#x201a;" horiz-adv-x="197" 
d="M45 -117l44 218h93l-79 -218h-58z" />
    <glyph glyph-name="quotedblleft" unicode="&#x201c;" horiz-adv-x="336" 
d="M20 512l91 238h58l-57 -238h-92zM164 512l92 238h57l-57 -238h-92z" />
    <glyph glyph-name="quotedblright" unicode="&#x201d;" horiz-adv-x="336" 
d="M23 512l58 238h92l-112 -238h-38zM168 512l57 238h92l-112 -238h-37z" />
    <glyph glyph-name="quotedblbase" unicode="&#x201e;" horiz-adv-x="317" 
d="M45 -117l44 218h93l-79 -218h-58zM165 -117l44 218h93l-79 -218h-58z" />
    <glyph glyph-name="dagger" unicode="&#x2020;" horiz-adv-x="418" 
d="M170 -80v478h-120v73h120v279h72v-279h126v-73h-126v-478h-72z" />
    <glyph glyph-name="daggerdbl" unicode="&#x2021;" horiz-adv-x="418" 
d="M170 -80v231h-120v73h120v222h-120v73h120v231h72v-231h126v-73h-126v-222h126v-73h-126v-231h-72z" />
    <glyph glyph-name="bullet" unicode="&#x2022;" horiz-adv-x="314" 
d="M157 157q-34 0 -58 23.5t-24 58.5q0 34 24 57.5t58 23.5q35 0 58.5 -23.5t23.5 -57.5q0 -35 -23.5 -58.5t-58.5 -23.5z" />
    <glyph glyph-name="ellipsis" unicode="&#x2026;" horiz-adv-x="649" 
d="M105 -10q-25 0 -42.5 17t-17.5 42t17.5 42.5t42.5 17.5q24 0 41.5 -17.5t17.5 -42.5t-17.5 -42t-41.5 -17zM325 -10q-25 0 -42.5 17t-17.5 42t17.5 42.5t42.5 17.5q24 0 41.5 -17.5t17.5 -42.5t-17.5 -42t-41.5 -17zM545 -10q-25 0 -42.5 17t-17.5 42t17.5 42.5
t42.5 17.5q24 0 41.5 -17.5t17.5 -42.5t-17.5 -42t-41.5 -17z" />
    <glyph glyph-name="perthousand" unicode="&#x2030;" horiz-adv-x="1008" 
d="M227 464q-61 0 -104.5 43t-43.5 105q0 61 43.5 104.5t104.5 43.5t105 -43.5t44 -104.5t-43.5 -104.5t-105.5 -43.5zM78 0l475 750h87l-475 -750h-87zM227 529q35 0 59 24.5t24 58.5t-24 58.5t-59 24.5q-34 0 -58 -24.5t-24 -58.5t24 -58.5t58 -24.5zM491 -10
q-61 0 -105 43.5t-44 104.5t43.5 104.5t105.5 43.5q61 0 104.5 -43.5t43.5 -104.5t-43.5 -104.5t-104.5 -43.5zM819 -10q-61 0 -105 43.5t-44 104.5t43.5 104.5t105.5 43.5q61 0 104.5 -43.5t43.5 -104.5t-43.5 -104.5t-104.5 -43.5zM491 55q34 0 58.5 24t24.5 59t-24.5 59
t-58.5 24q-35 0 -59.5 -24t-24.5 -59t24.5 -59t59.5 -24zM819 55q34 0 58.5 24t24.5 59t-24.5 59t-58.5 24q-35 0 -59.5 -24t-24.5 -59t24.5 -59t59.5 -24z" />
    <glyph glyph-name="guilsinglleft" unicode="&#x2039;" horiz-adv-x="255" 
d="M177 98l-139 142l139 133l39 -46l-93 -89l94 -96z" />
    <glyph glyph-name="guilsinglright" unicode="&#x203a;" horiz-adv-x="255" 
d="M79 98l-40 44l94 96l-93 89l38 46l140 -133z" />
    <glyph glyph-name="fraction" unicode="&#x2044;" horiz-adv-x="358" 
d="M-50 -10l387 770h72l-387 -770h-72z" />
    <glyph glyph-name="Euro" unicode="&#x20ac;" horiz-adv-x="703" 
d="M486 0q-123 0 -221 72.5t-140 191.5h-65v71h50q-3 21 -3 46t3 45h-50v71h65q42 116 139.5 184.5t221.5 68.5h157v-70h-157q-92 0 -167.5 -48t-117.5 -135h380v-71h-401q-3 -19 -3 -45q0 -27 3 -46h401v-71h-381q42 -91 118 -142.5t168 -51.5h157v-70h-157z" />
    <glyph glyph-name="trademark" unicode="&#x2122;" horiz-adv-x="723" 
d="M135 425v257h-85v68h241v-68h-85v-257h-71zM333 425v325h38l133 -177l131 177h38v-325h-71v167l-98 -133l-99 133v-167h-72z" />
    <glyph glyph-name="product" unicode="&#x220f;" horiz-adv-x="474" 
d="M70 0v750h334v-750h-63v683h-208v-683h-63z" />
    <glyph glyph-name="summation" unicode="&#x2211;" horiz-adv-x="798" 
d="M55 0l392 380l-392 370h668v-71h-495l319 -299l-319 -309h495v-71h-668z" />
    <glyph glyph-name="minus" unicode="&#x2212;" horiz-adv-x="468" 
d="M60 206v65h348v-65h-348z" />
    <glyph glyph-name="radical" unicode="&#x221a;" horiz-adv-x="907" 
d="M407 -156l-165 460h-232v71h282l152 -424l384 799h79l-436 -906h-64z" />
    <glyph glyph-name="infinity" unicode="&#x221e;" horiz-adv-x="1184" 
d="M308 -10q-103 0 -175.5 71.5t-72.5 172.5t72.5 172.5t175.5 71.5q147 0 275 -168l9 -12l9 12q130 168 275 168q103 0 175.5 -71.5t72.5 -172.5t-72.5 -172.5t-175.5 -71.5q-145 0 -275 168l-9 12l-9 -12q-128 -168 -275 -168zM308 59q66 0 129 50t113 125
q-50 75 -113 125t-129 50q-73 0 -125 -51t-52 -124t52 -124t125 -51zM876 59q73 0 125 51t52 124t-52 124t-125 51q-66 0 -129 -50t-113 -125q50 -74 113 -124.5t129 -50.5z" />
    <glyph glyph-name="approxequal" unicode="&#x2248;" horiz-adv-x="488" 
d="M126 267l-62 21q27 44 52 64t55 20q33 0 85 -26q44 -22 59 -22q19 0 47 50l62 -20q-48 -86 -107 -86q-28 0 -76 25t-68 25q-5 0 -10.5 -3t-9.5 -6.5t-9 -10.5t-7 -10.5t-6.5 -11.5t-4.5 -9zM126 114l-62 22q27 44 52 64t55 20q33 0 85 -26q46 -23 59 -23q4 0 8.5 1.5
t8.5 6t7 7.5t7.5 9.5t6 9t5.5 9.5l4 8l62 -21q-48 -85 -107 -85q-28 0 -76 24.5t-68 24.5t-47 -51z" />
    <glyph glyph-name="notequal" unicode="&#x2260;" horiz-adv-x="575" 
d="M145 -10l62 120h-137v65h170l62 119h-232v65h265l63 121h72l-63 -121h98v-65h-131l-62 -119h193v-65h-226l-62 -120h-72z" />
    <glyph glyph-name="_157" horiz-adv-x="637" 
d="M332 546v65h305v-65h-305z" />
    <glyph glyph-name="_158" horiz-adv-x="0" 
d="M-162 336v65h305v-65h-305z" />
    <glyph glyph-name="_159" horiz-adv-x="250" 
d="M31 254l-32 56l216 128l33 -57z" />
    <glyph glyph-name="_256" horiz-adv-x="916" 
d="M458 0q-157 0 -267.5 110.5t-110.5 267.5t110.5 267.5t267.5 110.5t267.5 -110.5t110.5 -267.5t-110.5 -267.5t-267.5 -110.5zM458 35q142 0 242.5 100.5t100.5 242.5t-100.5 242.5t-242.5 100.5t-242.5 -100.5t-100.5 -242.5t100.5 -242.5t242.5 -100.5zM261 230
q-7 0 -12 5t-5 12v262q0 7 5 12.5t12 5.5t12.5 -5.5t5.5 -12.5v-262q0 -17 -18 -17zM458 230q-17 0 -17 17v262q0 18 17 18t17 -18v-262q0 -17 -17 -17zM643 235l-132 131q-11 13 0 24l132 131q4 5 13 5h2l4 -2h2l3 -3q13 -11 0 -24l-119 -119l119 -119q13 -13 0 -24
q-13 -13 -24 0zM327 361q-17 0 -17 17t17 17h65q18 0 18 -17t-18 -17h-65z" />
    </font>
</defs>
</svg>
